<?xml version="1.0" encoding="utf-8"?>
<!-- Generator: Adobe Illustrator 21.1.0, SVG Export Plug-In . SVG Version: 6.00 Build 0)  -->
<svg version="1.1" id="Слой_1" xmlns="http://www.w3.org/2000/svg" xmlns:xlink="http://www.w3.org/1999/xlink" x="0px" y="0px"
	 viewBox="0 0 70.432 56.294" style="enable-background:new 0 0 70.432 56.294;" xml:space="preserve">
<style type="text/css">
	.st0{fill:none;stroke:#A21900;stroke-width:2;stroke-miterlimit:10;}
</style>
<g>
	<g>
		<line class="st0" x1="-534.033" y1="29.325" x2="-568.494" y2="29.325"/>
		<line class="st0" x1="-534.033" y1="24.993" x2="-568.494" y2="24.993"/>
		<line class="st0" x1="-534.033" y1="42.507" x2="-562.468" y2="42.507"/>
		<polyline class="st0" points="-568.494,49.004 -568.494,42.507 -573.014,42.507 -573.014,36.669 -529.514,36.669 -529.514,42.507 
			-534.033,42.507 -534.033,49.004 		"/>
		<line class="st0" x1="-568.494" y1="21.415" x2="-568.494" y2="35.728"/>
		<line class="st0" x1="-534.033" y1="21.415" x2="-534.033" y2="35.728"/>
	</g>
	<line class="st0" x1="-585.357" y1="49.004" x2="-517.17" y2="49.004"/>
	<rect x="-564.839" y="33.136" class="st0" width="10.826" height="3.533"/>
	<rect x="-548.514" y="33.136" class="st0" width="10.826" height="3.533"/>
	<rect x="-525.514" y="33.136" class="st0" width="10.826" height="3.533"/>
	<rect x="-525.514" y="36.669" class="st0" width="10.826" height="3.533"/>
	<rect x="-587.839" y="33.136" class="st0" width="10.826" height="3.533"/>
	<rect x="-587.839" y="36.669" class="st0" width="10.826" height="3.533"/>
	<polyline class="st0" points="-536.774,8.213 -527.901,10.123 -538.4,15.764 -529.527,17.675 	"/>
	<polyline class="st0" points="-523.784,8.576 -519.906,8.213 -523.475,11.876 -519.597,11.513 	"/>
	<polyline class="st0" points="-547.597,17.388 -542.288,16.316 -546.684,21.906 -541.376,20.834 	"/>
</g>
<path class="st0" d="M213.168,8.145c0-4.099-3.319-7.42-7.417-7.42c-4.096,0-7.418,3.321-7.418,7.42
	c0,3.204,2.029,5.934,4.875,6.968l2.686,6.761l2.743-6.899c2.661-1.128,4.532-3.757,4.535-6.83H213.168z"/>
<path class="st0" d="M210.017,20.019c0.523,0.39,0.894,0.868,1.071,1.399l59.2,6.055c0.94,0.092,1.623,0.552,1.777,1.165
	c0.158,0.609-0.268,1.26-1.063,1.675l-19.057,9.58c-0.479,0.221-1.021,0.358-1.59,0.358l-26.472,0.208l7.745,8.052
	c2.736,0.248,4.527,1.895,3.992,3.792c-0.551,1.954-3.373,3.406-6.289,3.256c-2.916-0.153-4.846-1.854-4.297-3.81
	c0.226-0.794,0.839-1.498,1.656-2.057l-9.475-9.848c-0.451-0.49-0.445-1.139,0.059-1.682c0.48-0.537,1.367-0.886,2.293-0.895
	l30.398-0.239l13.789-6.918l-53.939-5.512c-1.22,0.98-3.08,1.587-5,1.486c-2.916-0.15-4.822-1.867-4.271-3.819
	c0.187-0.661,0.631-1.266,1.249-1.772"/>
<g>
	<path class="st0" d="M-349.047,24.839l0.009,0.009c2.779-2.779,3.982-4.289,8.266-4.511c3.703,0.488,8.314-1.268,11.98-4.935
		c5.286-5.286,6.606-12.537,2.948-16.196c-3.658-3.658-10.909-2.338-16.195,2.948c-3.667,3.667-5.423,8.278-4.935,11.981
		c-0.222,4.283-1.732,5.487-4.511,8.266l0.009,0.009"/>
	<path class="st0" d="M-359.735,29.701l-24.796,21.942c-1.616,1.43-1.69,3.848-0.164,5.375l1.041,1.041
		c1.526,1.526,3.944,1.452,5.375-0.164l21.598-24.409"/>
	<path class="st0" d="M-373.206,8.813c0.305,0.305,0.805,0.305,1.11,0l2.229-1.229c0.305-0.305,0.305-0.805,0-1.11l-9.017-9.017
		c-0.305-0.305-0.313-0.797-0.017-1.093c0.296-0.296,0.789-0.289,1.093,0.016l9.017,9.017c0.305,0.305,0.773,0.773,1.04,1.04
		c0.267,0.267,0.735,0.735,1.04,1.04l3.26,3.26l0.902,0.902l0.945,0.945c-0.267,6.457,1.247,7.544,4.511,10.807l-0.009,0.009
		c0.123,0.099,0.246,0.201,0.368,0.309l32.687,28.924c1.616,1.43,1.69,3.849,0.164,5.374l-1.041,1.041
		c-1.526,1.526-3.944,1.452-5.374-0.164l-28.924-32.687c-0.108-0.122-0.21-0.244-0.309-0.368l-0.009,0.009
		c-3.263-3.263-4.35-4.777-10.807-4.511l-0.945-0.945l-1.249-1.249l-2.913-2.913c-0.305-0.305-0.773-0.773-1.04-1.04
		c-0.267-0.267-0.735-0.735-1.04-1.04l-9.017-9.017c-0.305-0.305-0.313-0.797-0.016-1.093c0.296-0.296,0.788-0.288,1.093,0.017
		l9.017,9.017c0.305,0.305,0.805,0.305,1.11,0l1.09-2.09c0.305-0.305,0.305-0.805,0-1.11l-9.017-9.017
		c-0.305-0.305-0.312-0.797-0.016-1.093s0.789-0.289,1.093,0.016L-373.206,8.813z"/>
</g>
<g>
	<g>
		<path class="st0" d="M-165.466,29.39l-6.593-2.62c-0.872-0.346-0.994-1.12-0.272-1.719l4.148-3.44
			c0.722-0.599,1.362-1.855,1.422-2.791l0.345-5.378c0.06-0.936,0.758-1.292,1.551-0.79l4.554,2.881
			c0.793,0.502,2.185,0.722,3.094,0.49l5.221-1.333c0.909-0.232,1.463,0.322,1.231,1.231l-1.333,5.221
			c-0.232,0.909-0.012,2.301,0.49,3.094l2.882,4.554c0.502,0.793,0.146,1.49-0.79,1.551l-5.378,0.345
			c-0.936,0.06-2.192,0.7-2.791,1.422l-3.441,4.148c-0.599,0.722-1.372,0.6-1.719-0.272l-1.805-4.542"/>
	</g>
	<line class="st0" x1="-176.922" y1="8.2" x2="-176.141" y2="4.18"/>
	<line class="st0" x1="-147.816" y1="-1.959" x2="-146.551" y2="-5.853"/>
	<line class="st0" x1="-185.003" y1="11.038" x2="-191.728" y2="6.19"/>
	<line class="st0" x1="-142.295" y1="3.678" x2="-135.84" y2="2.653"/>
	<line class="st0" x1="-157.875" y1="-2.684" x2="-155.814" y2="-0.393"/>
	<g>
		<path class="st0" d="M-178.887,10.436c0.65,0.677,1.87,0.891,2.711,0.476l2.47-1.218c0.841-0.415,1.316-0.017,1.055,0.884
			l-0.766,2.645c-0.261,0.901,0.164,2.065,0.944,2.586l2.29,1.53c0.78,0.521,0.673,1.131-0.238,1.356l-2.674,0.659
			c-0.911,0.224-1.706,1.174-1.767,2.11l-0.18,2.748c-0.061,0.936-0.643,1.148-1.293,0.472l-1.908-1.986
			c-0.65-0.677-1.87-0.891-2.711-0.476l-2.47,1.218c-0.841,0.415-1.316,0.017-1.055-0.884l0.766-2.645
			c0.261-0.901-0.164-2.065-0.944-2.586l-2.29-1.53c-0.78-0.521-0.673-1.131,0.238-1.356l2.674-0.659
			c0.911-0.224,1.706-1.174,1.767-2.11l0.18-2.748c0.061-0.936,0.643-1.148,1.293-0.472L-178.887,10.436z"/>
	</g>
	<g>
		<path class="st0" d="M-149.975,0.051c0.61,0.713,1.816,0.997,2.679,0.631l2.536-1.074c0.864-0.366,1.315,0.058,1.002,0.943
			l-0.917,2.597c-0.312,0.885,0.045,2.071,0.793,2.636l2.198,1.659c0.749,0.565,0.607,1.168-0.315,1.34l-2.708,0.504
			c-0.922,0.172-1.771,1.074-1.886,2.005l-0.338,2.733c-0.115,0.931-0.708,1.11-1.318,0.397l-1.79-2.093
			c-0.61-0.713-1.816-0.997-2.679-0.631l-2.536,1.074c-0.864,0.366-1.315-0.058-1.003-0.943l0.917-2.597
			c0.312-0.885-0.045-2.071-0.793-2.636l-2.198-1.659c-0.749-0.565-0.607-1.168,0.315-1.34l2.708-0.504
			c0.922-0.172,1.771-1.074,1.886-2.005l0.338-2.733c0.115-0.931,0.708-1.11,1.318-0.397L-149.975,0.051z"/>
	</g>
	<polyline class="st0" points="-178.565,27.207 -170.802,54.898 -173.645,62.147 -160.73,61.436 -163.411,54.614 -153.177,32.535 	
		"/>
	<line class="st0" x1="-171.313" y1="53.074" x2="-162.58" y2="52.822"/>
	<line class="st0" x1="-171.525" y1="56.741" x2="-163.411" y2="54.614"/>
	<line class="st0" x1="-176.141" y1="35.856" x2="-157.875" y2="42.672"/>
	<line class="st0" x1="-172.467" y1="48.957" x2="-158.805" y2="44.677"/>
</g>
<g>
	<g>
		<path class="st0" d="M1,16.878c0-2.2,1.8-4,4-4h48.555c2.2,0,4,1.8,4,4v34.416c0,2.2-1.8,4-4,4H5c-2.2,0-4-1.8-4-4V16.878z"/>
	</g>
	<g>
		<path class="st0" d="M35.497,41.514c0-1.1,0.9-2,2-2h12.767c1.1,0,2,0.9,2,2v6.49c0,1.1-0.9,2-2,2H37.497c-1.1,0-2-0.9-2-2V41.514
			z"/>
	</g>
	<g>
		<path class="st0" d="M12.877,8.637c0,0,0-1.718,0-3.818s1.8-3.818,4-3.818h48.555c2.2,0,4,1.8,4,4v34.415c0,2.2-1.718,4-3.817,4
			c-2.1,0-3.817,0-3.817,0"/>
	</g>
	<line class="st0" x1="65.438" y1="7.514" x2="16.871" y2="7.514"/>
	<line class="st0" x1="65.438" y1="15.075" x2="61.747" y2="15.075"/>
</g>
</svg>
