<?xml version="1.0" encoding="utf-8"?>
<!-- Generator: Adobe Illustrator 21.1.0, SVG Export Plug-In . SVG Version: 6.00 Build 0)  -->
<svg version="1.1" id="Слой_1" xmlns="http://www.w3.org/2000/svg" xmlns:xlink="http://www.w3.org/1999/xlink" x="0px" y="0px"
	 viewBox="0 0 66 66" style="enable-background:new 0 0 66 66;" xml:space="preserve">
<style type="text/css">
	.st0{fill:none;stroke:#A21900;stroke-width:2;stroke-miterlimit:10;}
</style>
<g>
	<g>
		<line class="st0" x1="-146.249" y1="34.178" x2="-180.71" y2="34.178"/>
		<line class="st0" x1="-146.249" y1="29.846" x2="-180.71" y2="29.846"/>
		<line class="st0" x1="-146.249" y1="47.36" x2="-174.683" y2="47.36"/>
		<polyline class="st0" points="-180.71,53.857 -180.71,47.36 -185.229,47.36 -185.229,41.522 -141.729,41.522 -141.729,47.36 
			-146.249,47.36 -146.249,53.857 		"/>
		<line class="st0" x1="-180.71" y1="26.268" x2="-180.71" y2="40.581"/>
		<line class="st0" x1="-146.249" y1="26.268" x2="-146.249" y2="40.581"/>
	</g>
	<line class="st0" x1="-197.573" y1="53.857" x2="-129.386" y2="53.857"/>
	<rect x="-177.055" y="37.989" class="st0" width="10.826" height="3.533"/>
	<rect x="-160.73" y="37.989" class="st0" width="10.826" height="3.533"/>
	<rect x="-137.729" y="37.989" class="st0" width="10.826" height="3.533"/>
	<rect x="-137.729" y="41.522" class="st0" width="10.826" height="3.533"/>
	<rect x="-200.055" y="37.989" class="st0" width="10.826" height="3.533"/>
	<rect x="-200.055" y="41.522" class="st0" width="10.826" height="3.533"/>
	<polyline class="st0" points="-148.99,13.066 -140.117,14.976 -150.616,20.617 -141.743,22.528 	"/>
	<polyline class="st0" points="-136,13.429 -132.122,13.066 -135.69,16.729 -131.813,16.366 	"/>
	<polyline class="st0" points="-159.813,22.241 -154.504,21.169 -158.9,26.759 -153.592,25.687 	"/>
</g>
<path class="st0" d="M600.952,12.998c0-4.099-3.319-7.42-7.417-7.42c-4.096,0-7.418,3.321-7.418,7.42
	c0,3.204,2.029,5.934,4.875,6.968l2.686,6.761l2.743-6.899c2.661-1.128,4.532-3.757,4.535-6.83H600.952z"/>
<path class="st0" d="M597.801,24.872c0.523,0.39,0.894,0.868,1.071,1.399l59.2,6.055c0.94,0.092,1.623,0.553,1.777,1.165
	c0.158,0.609-0.268,1.26-1.063,1.675l-19.057,9.58c-0.479,0.221-1.021,0.358-1.59,0.358l-26.472,0.208l7.745,8.052
	c2.736,0.248,4.527,1.895,3.992,3.792c-0.551,1.954-3.373,3.406-6.289,3.256c-2.916-0.153-4.846-1.854-4.297-3.81
	c0.226-0.794,0.839-1.498,1.656-2.057l-9.475-9.848c-0.451-0.49-0.445-1.139,0.059-1.682c0.48-0.537,1.367-0.886,2.293-0.895
	l30.398-0.239l13.789-6.918l-53.94-5.512c-1.22,0.98-3.08,1.587-5,1.486c-2.916-0.15-4.822-1.867-4.271-3.819
	c0.187-0.661,0.631-1.266,1.249-1.772"/>
<g>
	<path class="st0" d="M38.737,29.692l0.009,0.009c2.779-2.779,3.982-4.289,8.266-4.511c3.703,0.488,8.314-1.268,11.98-4.935
		c5.286-5.286,6.606-12.537,2.948-16.196c-3.658-3.658-10.909-2.338-16.195,2.948c-3.667,3.667-5.423,8.278-4.935,11.981
		c-0.222,4.283-1.732,5.487-4.511,8.266l0.009,0.009"/>
	<path class="st0" d="M28.049,34.554L3.252,56.496c-1.616,1.43-1.69,3.848-0.164,5.375l1.041,1.041
		c1.526,1.526,3.944,1.452,5.375-0.164l21.598-24.409"/>
	<path class="st0" d="M14.578,13.666c0.305,0.305,0.805,0.305,1.11,0l2.229-1.229c0.305-0.305,0.305-0.805,0-1.11L8.9,2.311
		C8.595,2.006,8.588,1.513,8.884,1.217C9.18,0.921,9.672,0.929,9.977,1.234l9.017,9.017c0.305,0.305,0.773,0.773,1.04,1.04
		c0.267,0.267,0.735,0.735,1.04,1.04l3.26,3.26l0.902,0.902l0.945,0.945c-0.267,6.457,1.247,7.544,4.511,10.807l-0.009,0.009
		c0.123,0.099,0.246,0.201,0.368,0.309l32.687,28.924c1.616,1.43,1.69,3.849,0.164,5.374l-1.041,1.041
		c-1.526,1.526-3.944,1.452-5.374-0.164L28.563,31.051c-0.108-0.122-0.21-0.244-0.309-0.368l-0.009,0.009
		c-3.263-3.263-4.35-4.777-10.807-4.511l-0.945-0.945l-1.249-1.249l-2.913-2.913c-0.305-0.305-0.773-0.773-1.04-1.04
		c-0.267-0.267-0.735-0.735-1.04-1.04L1.234,9.977C0.929,9.672,0.921,9.18,1.217,8.884C1.513,8.588,2.006,8.595,2.311,8.9
		l9.017,9.017c0.305,0.305,0.805,0.305,1.11,0l1.09-2.09c0.305-0.305,0.305-0.805,0-1.11L4.51,5.701
		C4.205,5.396,4.198,4.903,4.494,4.607s0.789-0.289,1.093,0.016L14.578,13.666z"/>
</g>
<g>
	<g>
		<path class="st0" d="M222.318,34.243l-6.593-2.62c-0.872-0.346-0.994-1.12-0.272-1.719l4.148-3.44
			c0.722-0.599,1.362-1.855,1.422-2.791l0.345-5.378c0.06-0.936,0.758-1.292,1.551-0.79l4.554,2.881
			c0.793,0.502,2.185,0.722,3.094,0.49l5.221-1.333c0.909-0.232,1.463,0.322,1.231,1.231l-1.333,5.221
			c-0.232,0.909-0.012,2.301,0.49,3.094l2.882,4.554c0.502,0.793,0.146,1.49-0.79,1.551l-5.378,0.345
			c-0.936,0.06-2.192,0.7-2.791,1.422l-3.441,4.148c-0.599,0.722-1.372,0.6-1.719-0.272l-1.805-4.542"/>
	</g>
	<line class="st0" x1="210.863" y1="13.053" x2="211.644" y2="9.033"/>
	<line class="st0" x1="239.968" y1="2.894" x2="241.233" y2="-1"/>
	<line class="st0" x1="202.782" y1="15.891" x2="196.056" y2="11.043"/>
	<line class="st0" x1="245.489" y1="8.531" x2="251.944" y2="7.506"/>
	<line class="st0" x1="229.909" y1="2.169" x2="231.97" y2="4.46"/>
	<g>
		<path class="st0" d="M208.897,15.289c0.65,0.677,1.87,0.891,2.711,0.476l2.47-1.218c0.841-0.415,1.316-0.017,1.055,0.884
			l-0.766,2.645c-0.261,0.901,0.164,2.065,0.944,2.586l2.29,1.53c0.78,0.521,0.673,1.131-0.238,1.356l-2.674,0.659
			c-0.911,0.224-1.706,1.174-1.767,2.11l-0.18,2.748c-0.061,0.936-0.643,1.148-1.293,0.472l-1.908-1.986
			c-0.65-0.677-1.87-0.891-2.711-0.476l-2.47,1.218c-0.841,0.415-1.316,0.017-1.055-0.884l0.766-2.645
			c0.261-0.901-0.164-2.065-0.944-2.586l-2.29-1.53c-0.78-0.521-0.673-1.131,0.238-1.356l2.674-0.659
			c0.911-0.224,1.706-1.174,1.767-2.11l0.18-2.748c0.061-0.936,0.643-1.148,1.293-0.472L208.897,15.289z"/>
	</g>
	<g>
		<path class="st0" d="M237.809,4.904c0.61,0.713,1.816,0.997,2.679,0.631l2.536-1.074c0.864-0.366,1.315,0.058,1.002,0.943
			l-0.917,2.597c-0.312,0.885,0.045,2.071,0.793,2.636l2.198,1.659c0.749,0.565,0.607,1.168-0.315,1.34l-2.708,0.504
			c-0.922,0.172-1.771,1.074-1.886,2.005l-0.338,2.733c-0.115,0.931-0.708,1.11-1.318,0.397l-1.79-2.093
			c-0.61-0.713-1.816-0.997-2.679-0.631l-2.536,1.074c-0.864,0.366-1.315-0.058-1.003-0.943l0.917-2.597
			c0.312-0.885-0.045-2.071-0.793-2.636l-2.198-1.659c-0.749-0.565-0.607-1.168,0.315-1.34l2.708-0.504
			c0.922-0.172,1.771-1.074,1.886-2.005l0.338-2.733c0.115-0.931,0.708-1.11,1.318-0.397L237.809,4.904z"/>
	</g>
	<polyline class="st0" points="209.219,32.06 216.982,59.751 214.139,67 227.054,66.289 224.374,59.467 234.607,37.388 	"/>
	<line class="st0" x1="216.471" y1="57.927" x2="225.204" y2="57.675"/>
	<line class="st0" x1="216.26" y1="61.594" x2="224.374" y2="59.467"/>
	<line class="st0" x1="211.644" y1="40.709" x2="229.909" y2="47.525"/>
	<line class="st0" x1="215.317" y1="53.81" x2="228.979" y2="49.53"/>
</g>
<g>
	<g>
		<path class="st0" d="M388.784,21.731c0-2.2,1.8-4,4-4h48.555c2.2,0,4,1.8,4,4v34.416c0,2.2-1.8,4-4,4h-48.555c-2.2,0-4-1.8-4-4
			V21.731z"/>
	</g>
	<g>
		<path class="st0" d="M423.281,46.367c0-1.1,0.9-2,2-2h12.767c1.1,0,2,0.9,2,2v6.49c0,1.1-0.9,2-2,2h-12.767c-1.1,0-2-0.9-2-2
			V46.367z"/>
	</g>
	<g>
		<path class="st0" d="M400.661,13.49c0,0,0-1.718,0-3.818s1.8-3.818,4-3.818h48.555c2.2,0,4,1.8,4,4v34.415c0,2.2-1.718,4-3.817,4
			c-2.1,0-3.817,0-3.817,0"/>
	</g>
	<line class="st0" x1="453.223" y1="12.367" x2="404.655" y2="12.367"/>
	<line class="st0" x1="453.223" y1="19.928" x2="449.531" y2="19.928"/>
</g>
</svg>
