<?xml version="1.0" encoding="utf-8"?>
<!-- Generator: Adobe Illustrator 21.1.0, SVG Export Plug-In . SVG Version: 6.00 Build 0)  -->
<svg version="1.1" id="Слой_1" xmlns="http://www.w3.org/2000/svg" xmlns:xlink="http://www.w3.org/1999/xlink" x="0px" y="0px"
	 viewBox="0 0 75.765 56.845" style="enable-background:new 0 0 75.765 56.845;" xml:space="preserve">
<style type="text/css">
	.st0{fill:none;stroke:#A21900;stroke-width:2;stroke-miterlimit:10;}
</style>
<g>
	<g>
		<line class="st0" x1="-731.367" y1="29.6" x2="-765.827" y2="29.6"/>
		<line class="st0" x1="-731.367" y1="25.269" x2="-765.827" y2="25.269"/>
		<line class="st0" x1="-731.367" y1="42.783" x2="-759.801" y2="42.783"/>
		<polyline class="st0" points="-765.827,49.28 -765.827,42.783 -770.347,42.783 -770.347,36.945 -726.847,36.945 -726.847,42.783 
			-731.367,42.783 -731.367,49.28 		"/>
		<line class="st0" x1="-765.827" y1="21.691" x2="-765.827" y2="36.003"/>
		<line class="st0" x1="-731.367" y1="21.691" x2="-731.367" y2="36.003"/>
	</g>
	<line class="st0" x1="-782.691" y1="49.28" x2="-714.503" y2="49.28"/>
	<rect x="-762.172" y="33.412" class="st0" width="10.826" height="3.533"/>
	<rect x="-745.847" y="33.412" class="st0" width="10.826" height="3.533"/>
	<rect x="-722.847" y="33.412" class="st0" width="10.826" height="3.533"/>
	<rect x="-722.847" y="36.945" class="st0" width="10.826" height="3.533"/>
	<rect x="-785.173" y="33.412" class="st0" width="10.826" height="3.533"/>
	<rect x="-785.173" y="36.945" class="st0" width="10.826" height="3.533"/>
	<polyline class="st0" points="-734.107,8.488 -725.234,10.399 -735.733,16.04 -726.86,17.95 	"/>
	<polyline class="st0" points="-721.117,8.851 -717.239,8.488 -720.808,12.152 -716.93,11.788 	"/>
	<polyline class="st0" points="-744.93,17.663 -739.622,16.591 -744.018,22.181 -738.709,21.109 	"/>
</g>
<path class="st0" d="M15.835,8.42c0-4.099-3.319-7.42-7.417-7.42C4.322,1,1,4.321,1,8.42c0,3.204,2.029,5.934,4.875,6.968
	l2.686,6.761l2.743-6.899c2.661-1.128,4.532-3.757,4.535-6.83H15.835z"/>
<path class="st0" d="M12.684,20.295c0.523,0.39,0.894,0.868,1.071,1.399l59.2,6.055c0.939,0.092,1.623,0.552,1.777,1.165
	c0.158,0.609-0.268,1.26-1.063,1.676l-19.057,9.58c-0.479,0.221-1.021,0.358-1.59,0.358l-26.472,0.208l7.745,8.052
	c2.736,0.248,4.527,1.895,3.992,3.792c-0.551,1.954-3.373,3.405-6.289,3.256c-2.916-0.153-4.846-1.854-4.297-3.81
	c0.226-0.794,0.839-1.498,1.656-2.057l-9.475-9.848c-0.451-0.49-0.445-1.139,0.059-1.682c0.48-0.537,1.367-0.886,2.293-0.895
	l30.398-0.239l13.789-6.918l-53.939-5.512c-1.22,0.98-3.08,1.587-5,1.486c-2.916-0.15-4.822-1.867-4.271-3.819
	c0.187-0.661,0.631-1.266,1.249-1.772"/>
<g>
	<path class="st0" d="M-546.381,25.115l0.009,0.009c2.779-2.779,3.982-4.289,8.266-4.511c3.703,0.488,8.314-1.268,11.98-4.935
		c5.286-5.286,6.606-12.537,2.948-16.196c-3.658-3.658-10.909-2.338-16.195,2.948c-3.667,3.667-5.423,8.278-4.935,11.981
		c-0.222,4.283-1.732,5.487-4.511,8.266l0.009,0.009"/>
	<path class="st0" d="M-557.069,29.977l-24.796,21.942c-1.616,1.43-1.69,3.848-0.164,5.375l1.041,1.041
		c1.526,1.526,3.944,1.452,5.375-0.164l21.598-24.409"/>
	<path class="st0" d="M-570.539,9.089c0.305,0.305,0.805,0.305,1.11,0l2.229-1.229c0.305-0.305,0.305-0.805,0-1.11l-9.017-9.017
		c-0.305-0.305-0.313-0.797-0.017-1.093c0.296-0.296,0.789-0.289,1.093,0.016l9.017,9.017c0.305,0.305,0.773,0.773,1.04,1.04
		c0.267,0.267,0.735,0.735,1.04,1.04l3.26,3.26l0.902,0.902l0.945,0.945c-0.267,6.457,1.247,7.544,4.511,10.807l-0.009,0.009
		c0.123,0.099,0.246,0.201,0.368,0.309l32.687,28.924c1.616,1.43,1.69,3.849,0.164,5.374l-1.041,1.041
		c-1.526,1.526-3.944,1.452-5.374-0.164l-28.924-32.687c-0.108-0.122-0.21-0.244-0.309-0.368l-0.009,0.009
		c-3.263-3.263-4.35-4.777-10.807-4.511l-0.945-0.945l-1.249-1.249l-2.913-2.913c-0.305-0.305-0.773-0.773-1.04-1.04
		c-0.267-0.267-0.735-0.735-1.04-1.04l-9.017-9.017c-0.305-0.305-0.313-0.797-0.016-1.093c0.296-0.296,0.788-0.288,1.093,0.017
		l9.017,9.017c0.305,0.305,0.805,0.305,1.11,0l1.09-2.09c0.305-0.305,0.305-0.805,0-1.11l-9.017-9.017
		c-0.305-0.305-0.312-0.797-0.016-1.093s0.789-0.289,1.093,0.016L-570.539,9.089z"/>
</g>
<g>
	<g>
		<path class="st0" d="M-362.8,29.665l-6.593-2.62c-0.872-0.346-0.994-1.12-0.272-1.719l4.148-3.44
			c0.722-0.599,1.362-1.855,1.422-2.791l0.345-5.378c0.06-0.936,0.758-1.292,1.551-0.79l4.554,2.881
			c0.793,0.502,2.185,0.722,3.094,0.49l5.221-1.333c0.909-0.232,1.463,0.322,1.231,1.231l-1.333,5.221
			c-0.232,0.909-0.012,2.301,0.49,3.094l2.882,4.554c0.502,0.793,0.146,1.49-0.79,1.551l-5.378,0.345
			c-0.936,0.06-2.192,0.7-2.791,1.422l-3.441,4.148c-0.599,0.722-1.372,0.6-1.719-0.272l-1.805-4.542"/>
	</g>
	<line class="st0" x1="-374.255" y1="8.475" x2="-373.474" y2="4.456"/>
	<line class="st0" x1="-345.149" y1="-1.683" x2="-343.885" y2="-5.577"/>
	<line class="st0" x1="-382.336" y1="11.313" x2="-389.061" y2="6.466"/>
	<line class="st0" x1="-339.628" y1="3.953" x2="-333.174" y2="2.929"/>
	<line class="st0" x1="-355.209" y1="-2.409" x2="-353.148" y2="-0.117"/>
	<g>
		<path class="st0" d="M-376.221,10.711c0.65,0.677,1.87,0.891,2.711,0.476l2.47-1.218c0.841-0.415,1.316-0.017,1.055,0.884
			l-0.766,2.645c-0.261,0.901,0.164,2.065,0.944,2.586l2.29,1.53c0.78,0.521,0.673,1.131-0.238,1.356l-2.674,0.659
			c-0.911,0.224-1.706,1.174-1.767,2.11l-0.18,2.748c-0.061,0.936-0.643,1.148-1.293,0.472l-1.908-1.986
			c-0.65-0.677-1.87-0.891-2.711-0.476l-2.47,1.218c-0.841,0.415-1.316,0.017-1.055-0.884l0.766-2.645
			c0.261-0.901-0.164-2.065-0.944-2.586l-2.29-1.53c-0.78-0.521-0.673-1.131,0.238-1.356l2.674-0.659
			c0.911-0.224,1.706-1.174,1.767-2.11l0.18-2.748c0.061-0.936,0.643-1.148,1.293-0.472L-376.221,10.711z"/>
	</g>
	<g>
		<path class="st0" d="M-347.308,0.327c0.61,0.713,1.816,0.997,2.679,0.631l2.536-1.074c0.864-0.366,1.315,0.058,1.003,0.943
			l-0.917,2.597c-0.312,0.885,0.045,2.071,0.793,2.636l2.198,1.659c0.749,0.565,0.607,1.168-0.315,1.34l-2.708,0.504
			c-0.922,0.172-1.771,1.074-1.886,2.005l-0.338,2.733c-0.115,0.931-0.708,1.11-1.318,0.397l-1.79-2.093
			c-0.61-0.713-1.816-0.997-2.679-0.631l-2.536,1.074c-0.864,0.366-1.315-0.058-1.003-0.943l0.917-2.597
			c0.312-0.885-0.045-2.071-0.793-2.636l-2.198-1.659c-0.749-0.565-0.607-1.168,0.315-1.34l2.708-0.504
			c0.922-0.172,1.771-1.074,1.886-2.005l0.338-2.733c0.115-0.931,0.708-1.11,1.318-0.397L-347.308,0.327z"/>
	</g>
	<polyline class="st0" points="-375.899,27.483 -368.135,55.174 -370.978,62.423 -358.064,61.712 -360.744,54.889 -350.51,32.811 	
		"/>
	<line class="st0" x1="-368.646" y1="53.35" x2="-359.913" y2="53.097"/>
	<line class="st0" x1="-368.858" y1="57.017" x2="-360.744" y2="54.889"/>
	<line class="st0" x1="-373.474" y1="36.131" x2="-355.209" y2="42.948"/>
	<line class="st0" x1="-369.801" y1="49.232" x2="-356.138" y2="44.953"/>
</g>
<g>
	<g>
		<path class="st0" d="M-196.333,17.154c0-2.2,1.8-4,4-4h48.555c2.2,0,4,1.8,4,4V51.57c0,2.2-1.8,4-4,4h-48.555c-2.2,0-4-1.8-4-4
			V17.154z"/>
	</g>
	<g>
		<path class="st0" d="M-161.836,41.789c0-1.1,0.9-2,2-2h12.767c1.1,0,2,0.9,2,2v6.49c0,1.1-0.9,2-2,2h-12.767c-1.1,0-2-0.9-2-2
			V41.789z"/>
	</g>
	<g>
		<path class="st0" d="M-184.456,8.912c0,0,0-1.718,0-3.818s1.8-3.818,4-3.818h48.555c2.2,0,4,1.8,4,4v34.415c0,2.2-1.718,4-3.817,4
			c-2.1,0-3.817,0-3.817,0"/>
	</g>
	<line class="st0" x1="-131.895" y1="7.789" x2="-180.462" y2="7.789"/>
	<line class="st0" x1="-131.895" y1="15.351" x2="-135.586" y2="15.351"/>
</g>
</svg>
