<?xml version="1.0" encoding="utf-8"?>
<!-- Generator: Adobe Illustrator 21.1.0, SVG Export Plug-In . SVG Version: 6.00 Build 0)  -->
<svg version="1.1" id="Слой_1" xmlns="http://www.w3.org/2000/svg" xmlns:xlink="http://www.w3.org/1999/xlink" x="0px" y="0px"
	 viewBox="0 0 71.451 66.045" style="enable-background:new 0 0 71.451 66.045;" xml:space="preserve">
<style type="text/css">
	.st0{fill:none;stroke:#A21900;stroke-width:2;stroke-miterlimit:10;}
</style>
<g>
	<circle class="st0" cx="53.639" cy="55.365" r="2.826"/>
	<ellipse class="st0" cx="36.244" cy="15.217" rx="4.531" ry="2.436"/>
	<path class="st0" d="M13.003,29.932v8.158c0,6.901,10.405,12.495,23.241,12.495c12.836,0,23.241-5.594,23.241-12.495v-8.158"/>
	<line class="st0" x1="36.244" y1="38.214" x2="36.244" y2="50.585"/>
	<polyline class="st0" points="36.244,15.217 53.639,22.428 53.639,52.539 	"/>
	<polygon class="st0" points="36.244,1.087 68.938,15.217 36.244,29.444 2.577,15.266 	"/>
	<polyline class="st0" points="68.938,19.651 36.244,33.878 2.577,19.7 	"/>
	<line class="st0" x1="53.639" y1="60.822" x2="53.639" y2="65.402"/>
	<line class="st0" x1="50.033" y1="59.458" x2="48.377" y2="65.792"/>
	<line class="st0" x1="57.019" y1="59.458" x2="58.676" y2="65.792"/>
</g>
</svg>
