<?xml version="1.0" encoding="utf-8"?>
<!-- Generator: Adobe Illustrator 21.1.0, SVG Export Plug-In . SVG Version: 6.00 Build 0)  -->
<svg version="1.1" id="Слой_1" xmlns="http://www.w3.org/2000/svg" xmlns:xlink="http://www.w3.org/1999/xlink" x="0px" y="0px"
	 viewBox="0 0 33.796 31" style="enable-background:new 0 0 33.796 31;" xml:space="preserve">
<style type="text/css">
	.st0{fill:none;stroke:#FFFFFF;stroke-linecap:round;stroke-linejoin:round;stroke-miterlimit:10;}
</style>
<path class="st0" d="M16.995,30.5c-1.11-1.074-2.153-2.049-3.157-3.063c-3.589-3.62-7.218-7.203-10.734-10.893
	c-4.843-5.082-2.614-13.537,4.08-15.552c3.474-1.046,6.601-0.248,9.326,2.139c0.075,0.066,0.147,0.136,0.222,0.202
	c0.018,0.016,0.044,0.022-0.002,0c0.773-0.548,1.475-1.145,2.264-1.59c5.783-3.264,13.069,0.219,14.154,6.774
	c0.543,3.278-0.417,6.116-2.744,8.477c-2.031,2.061-4.089,4.095-6.135,6.141c-2.356,2.356-4.713,4.712-7.066,7.071
	C17.107,30.302,17.043,30.43,16.995,30.5z"/>
</svg>
