<?xml version="1.0" encoding="utf-8"?>
<!-- Generator: Adobe Illustrator 21.1.0, SVG Export Plug-In . SVG Version: 6.00 Build 0)  -->
<svg version="1.1" id="Слой_1" xmlns="http://www.w3.org/2000/svg" xmlns:xlink="http://www.w3.org/1999/xlink" x="0px" y="0px"
	 viewBox="0 0 75.151 43.041" style="enable-background:new 0 0 75.151 43.041;" xml:space="preserve">
<style type="text/css">
	.st0{fill:none;stroke:#A21900;stroke-width:2;stroke-miterlimit:10;}
</style>
<g>
	<g>
		<line class="st0" x1="54.806" y1="22.361" x2="20.345" y2="22.361"/>
		<line class="st0" x1="54.806" y1="18.03" x2="20.345" y2="18.03"/>
		<line class="st0" x1="54.806" y1="35.544" x2="26.372" y2="35.544"/>
		<polyline class="st0" points="20.345,42.041 20.345,35.544 15.826,35.544 15.826,29.706 59.326,29.706 59.326,35.544 
			54.806,35.544 54.806,42.041 		"/>
		<line class="st0" x1="20.345" y1="14.452" x2="20.345" y2="28.764"/>
		<line class="st0" x1="54.806" y1="14.452" x2="54.806" y2="28.764"/>
	</g>
	<line class="st0" x1="3.482" y1="42.041" x2="71.669" y2="42.041"/>
	<rect x="24" y="26.173" class="st0" width="10.826" height="3.533"/>
	<rect x="40.325" y="26.173" class="st0" width="10.826" height="3.533"/>
	<rect x="63.326" y="26.173" class="st0" width="10.826" height="3.533"/>
	<rect x="63.326" y="29.706" class="st0" width="10.826" height="3.533"/>
	<rect x="1" y="26.173" class="st0" width="10.826" height="3.533"/>
	<rect x="1" y="29.706" class="st0" width="10.826" height="3.533"/>
	<polyline class="st0" points="52.066,1.249 60.939,3.16 50.44,8.801 59.313,10.711 	"/>
	<polyline class="st0" points="65.055,1.613 68.933,1.249 65.365,4.913 69.243,4.55 	"/>
	<polyline class="st0" points="41.243,10.424 46.551,9.352 42.155,14.942 47.464,13.87 	"/>
</g>
<path class="st0" d="M802.008,1.181c0-4.099-3.319-7.42-7.417-7.42c-4.096,0-7.418,3.321-7.418,7.42
	c0,3.204,2.029,5.934,4.875,6.968l2.686,6.761l2.743-6.899c2.661-1.128,4.532-3.757,4.535-6.83H802.008z"/>
<path class="st0" d="M798.856,13.056c0.523,0.39,0.894,0.868,1.071,1.399l59.2,6.055c0.94,0.092,1.623,0.552,1.777,1.165
	c0.158,0.609-0.268,1.26-1.063,1.675l-19.057,9.58c-0.479,0.221-1.021,0.358-1.59,0.358l-26.472,0.208l7.745,8.052
	c2.736,0.248,4.527,1.895,3.992,3.792c-0.551,1.954-3.373,3.406-6.289,3.256c-2.916-0.153-4.846-1.854-4.297-3.81
	c0.226-0.794,0.839-1.498,1.656-2.057l-9.475-9.848c-0.451-0.49-0.445-1.139,0.059-1.682c0.48-0.537,1.367-0.886,2.293-0.895
	l30.398-0.239l13.789-6.918l-53.94-5.512c-1.22,0.98-3.08,1.587-5,1.486c-2.916-0.15-4.822-1.867-4.271-3.819
	c0.187-0.661,0.631-1.266,1.249-1.772"/>
<g>
	<path class="st0" d="M239.792,17.876l0.009,0.009c2.779-2.779,3.982-4.289,8.266-4.511c3.703,0.488,8.314-1.268,11.98-4.935
		c5.286-5.286,6.606-12.537,2.948-16.196c-3.658-3.658-10.909-2.338-16.195,2.948c-3.667,3.667-5.423,8.278-4.935,11.981
		c-0.222,4.283-1.732,5.487-4.511,8.266l0.009,0.009"/>
	<path class="st0" d="M229.104,22.738L204.308,44.68c-1.616,1.43-1.69,3.848-0.164,5.375l1.041,1.041
		c1.526,1.526,3.944,1.452,5.375-0.164l21.598-24.409"/>
	<path class="st0" d="M215.633,1.85c0.305,0.305,0.805,0.305,1.11,0l2.229-1.229c0.305-0.305,0.305-0.805,0-1.11l-9.017-9.017
		c-0.305-0.305-0.313-0.797-0.017-1.093c0.296-0.296,0.789-0.289,1.093,0.016l9.017,9.017c0.305,0.305,0.773,0.773,1.04,1.04
		c0.267,0.267,0.735,0.735,1.04,1.04l3.26,3.26l0.902,0.902l0.945,0.945c-0.267,6.457,1.247,7.544,4.511,10.807l-0.009,0.009
		c0.123,0.099,0.246,0.201,0.368,0.309l32.687,28.924c1.616,1.43,1.69,3.849,0.164,5.374l-1.041,1.041
		c-1.526,1.526-3.944,1.452-5.374-0.164l-28.924-32.687c-0.108-0.122-0.21-0.244-0.309-0.368l-0.009,0.009
		c-3.263-3.263-4.35-4.777-10.807-4.511l-0.945-0.945l-1.249-1.249l-2.913-2.913c-0.305-0.305-0.773-0.773-1.04-1.04
		c-0.267-0.267-0.735-0.735-1.04-1.04l-9.017-9.017c-0.305-0.305-0.313-0.797-0.016-1.093c0.296-0.296,0.788-0.288,1.093,0.017
		l9.017,9.017c0.305,0.305,0.805,0.305,1.11,0l1.09-2.09c0.305-0.305,0.305-0.805,0-1.11l-9.017-9.017
		c-0.305-0.305-0.312-0.797-0.016-1.093c0.296-0.296,0.788-0.289,1.093,0.016L215.633,1.85z"/>
</g>
<g>
	<g>
		<path class="st0" d="M423.373,22.426l-6.593-2.62c-0.872-0.346-0.994-1.12-0.272-1.719l4.148-3.44
			c0.722-0.599,1.362-1.855,1.422-2.791l0.345-5.378c0.06-0.936,0.758-1.292,1.551-0.79l4.554,2.881
			c0.793,0.502,2.185,0.722,3.094,0.49l5.221-1.333c0.909-0.232,1.463,0.322,1.231,1.231l-1.333,5.221
			c-0.232,0.909-0.012,2.301,0.49,3.094l2.882,4.554c0.502,0.793,0.146,1.49-0.79,1.551l-5.378,0.345
			c-0.936,0.06-2.192,0.7-2.791,1.422l-3.441,4.148c-0.599,0.722-1.372,0.6-1.719-0.272l-1.805-4.542"/>
	</g>
	<line class="st0" x1="411.918" y1="1.236" x2="412.699" y2="-2.783"/>
	<line class="st0" x1="441.024" y1="-8.922" x2="442.288" y2="-12.816"/>
	<line class="st0" x1="403.837" y1="4.074" x2="397.111" y2="-0.773"/>
	<line class="st0" x1="446.545" y1="-3.286" x2="452.999" y2="-4.31"/>
	<line class="st0" x1="430.964" y1="-9.647" x2="433.025" y2="-7.356"/>
	<g>
		<path class="st0" d="M409.952,3.473c0.65,0.677,1.87,0.891,2.711,0.476l2.47-1.218c0.841-0.415,1.316-0.017,1.055,0.884
			l-0.766,2.645c-0.261,0.901,0.164,2.065,0.944,2.586l2.29,1.53c0.78,0.521,0.673,1.131-0.238,1.356l-2.674,0.659
			c-0.911,0.224-1.706,1.174-1.767,2.11l-0.18,2.748c-0.061,0.936-0.643,1.148-1.293,0.472l-1.908-1.986
			c-0.65-0.677-1.87-0.891-2.711-0.476l-2.47,1.218c-0.841,0.415-1.316,0.017-1.055-0.884l0.766-2.645
			c0.261-0.901-0.164-2.065-0.944-2.586l-2.29-1.53c-0.78-0.521-0.673-1.131,0.238-1.356l2.674-0.659
			c0.911-0.224,1.706-1.174,1.767-2.11l0.18-2.748c0.061-0.936,0.643-1.148,1.293-0.472L409.952,3.473z"/>
	</g>
	<g>
		<path class="st0" d="M438.865-6.912c0.61,0.713,1.816,0.997,2.679,0.631l2.536-1.074c0.864-0.366,1.315,0.058,1.003,0.943
			l-0.917,2.597c-0.312,0.885,0.045,2.071,0.793,2.636l2.198,1.659c0.749,0.565,0.607,1.168-0.315,1.34l-2.708,0.504
			c-0.922,0.172-1.771,1.074-1.886,2.005l-0.338,2.733c-0.115,0.931-0.708,1.11-1.318,0.397l-1.79-2.093
			c-0.61-0.713-1.816-0.997-2.679-0.631l-2.536,1.074c-0.864,0.366-1.315-0.058-1.002-0.943l0.917-2.597
			c0.312-0.885-0.045-2.071-0.793-2.636l-2.198-1.659c-0.749-0.565-0.607-1.168,0.315-1.34l2.708-0.504
			c0.922-0.172,1.771-1.074,1.886-2.005l0.338-2.733c0.115-0.931,0.708-1.11,1.318-0.397L438.865-6.912z"/>
	</g>
	<polyline class="st0" points="410.274,20.244 418.038,47.935 415.195,55.184 428.109,54.473 425.429,47.65 435.663,25.572 	"/>
	<line class="st0" x1="417.526" y1="46.111" x2="426.259" y2="45.859"/>
	<line class="st0" x1="417.315" y1="49.778" x2="425.429" y2="47.65"/>
	<line class="st0" x1="412.699" y1="28.893" x2="430.964" y2="35.709"/>
	<line class="st0" x1="416.372" y1="41.994" x2="430.035" y2="37.714"/>
</g>
<g>
	<g>
		<path class="st0" d="M589.839,9.915c0-2.2,1.8-4,4-4h48.555c2.2,0,4,1.8,4,4v34.416c0,2.2-1.8,4-4,4h-48.555c-2.2,0-4-1.8-4-4
			V9.915z"/>
	</g>
	<g>
		<path class="st0" d="M624.336,34.55c0-1.1,0.9-2,2-2h12.767c1.1,0,2,0.9,2,2v6.49c0,1.1-0.9,2-2,2h-12.767c-1.1,0-2-0.9-2-2V34.55
			z"/>
	</g>
	<g>
		<path class="st0" d="M601.716,1.673c0,0,0-1.718,0-3.818s1.8-3.818,4-3.818h48.555c2.2,0,4,1.8,4,4v34.415c0,2.2-1.718,4-3.817,4
			c-2.1,0-3.817,0-3.817,0"/>
	</g>
	<line class="st0" x1="654.278" y1="0.55" x2="605.71" y2="0.55"/>
	<line class="st0" x1="654.278" y1="8.112" x2="650.586" y2="8.112"/>
</g>
</svg>
