<?xml version="1.0" encoding="utf-8"?>
<!-- Generator: Adobe Illustrator 21.1.0, SVG Export Plug-In . SVG Version: 6.00 Build 0)  -->
<svg version="1.1" id="Слой_1" xmlns="http://www.w3.org/2000/svg" xmlns:xlink="http://www.w3.org/1999/xlink" x="0px" y="0px"
	 viewBox="0 0 160 46.728" style="enable-background:new 0 0 160 46.728;" xml:space="preserve">
<style type="text/css">
	.st0{fill:#FFFFFF;}
</style>
<g>
	<path class="st0" d="M30.857,0h5.694v1.495h-4.134v7.684h-1.561V0z"/>
	<path class="st0" d="M37.071,6.293c0.026,0.363,0.144,0.688,0.313,0.936c0.455,0.689,1.131,0.754,1.442,0.754
		c0.378,0,0.689-0.117,0.988-0.312c0.234-0.156,0.442-0.377,0.611-0.663l1.17,0.663c-0.26,0.402-0.598,0.793-1.001,1.079
		c-0.572,0.416-1.183,0.598-1.859,0.598c-1.053,0-1.807-0.455-2.262-0.936c-0.56-0.599-0.923-1.521-0.923-2.613
		c0-1.196,0.468-2.106,1.026-2.64c0.481-0.455,1.171-0.779,1.977-0.779c1.196,0,1.95,0.637,2.353,1.195
		c0.364,0.521,0.729,1.353,0.729,2.64v0.078H37.071z M39.997,5.07c-0.053-0.585-0.364-0.923-0.455-1.014
		c-0.273-0.273-0.624-0.403-0.962-0.403c-0.455,0-0.794,0.221-0.988,0.403c-0.247,0.233-0.455,0.585-0.521,1.014H39.997z"/>
	<path class="st0" d="M46.913,6.357h-2.679v2.821H42.83V2.562h1.404v2.535h2.679V2.562h1.403v6.617h-1.403V6.357z"/>
	<path class="st0" d="M51.033,6.293c0.026,0.363,0.144,0.688,0.313,0.936c0.455,0.689,1.131,0.754,1.442,0.754
		c0.378,0,0.689-0.117,0.988-0.312c0.234-0.156,0.442-0.377,0.611-0.663l1.17,0.663c-0.26,0.402-0.598,0.793-1.001,1.079
		c-0.572,0.416-1.183,0.598-1.859,0.598c-1.053,0-1.807-0.455-2.262-0.936c-0.56-0.599-0.923-1.521-0.923-2.613
		c0-1.196,0.468-2.106,1.026-2.64c0.481-0.455,1.171-0.779,1.977-0.779c1.196,0,1.95,0.637,2.353,1.195
		c0.364,0.521,0.729,1.353,0.729,2.64v0.078H51.033z M53.959,5.07c-0.053-0.585-0.364-0.923-0.455-1.014
		c-0.273-0.273-0.624-0.403-0.962-0.403c-0.455,0-0.794,0.221-0.988,0.403c-0.247,0.233-0.455,0.585-0.521,1.014H53.959z"/>
	<path class="st0" d="M56.792,2.562h1.404v0.624c0.208-0.247,0.702-0.729,1.716-0.729c0.638,0,1.443,0.183,2.067,0.976
		c0.352,0.441,0.754,1.209,0.754,2.47c0,2.002-1.065,3.458-2.821,3.458c-0.441,0-1.144-0.091-1.716-0.74v2.34h-1.404V2.562z
		 M58.573,7.527c0.313,0.416,0.768,0.481,1.093,0.481c0.507,0,0.896-0.182,1.183-0.572c0.208-0.286,0.403-0.767,0.403-1.534
		c0-0.845-0.222-1.365-0.508-1.664c-0.208-0.221-0.559-0.441-1.117-0.441c-0.377,0-0.638,0.116-0.832,0.26
		c-0.585,0.455-0.599,1.378-0.599,1.846S58.235,7.072,58.573,7.527z"/>
	<path class="st0" d="M69.104,7.657c0,0.807,0.039,1.118,0.221,1.521h-1.287c-0.117-0.078-0.221-0.195-0.272-0.299
		c-0.065-0.13-0.065-0.286-0.065-0.313c-0.611,0.599-1.273,0.689-1.781,0.689c-0.48,0-1.131-0.104-1.65-0.572
		c-0.352-0.325-0.65-0.806-0.65-1.508c0-0.65,0.234-1.092,0.559-1.365c0.508-0.442,1.534-0.624,1.639-0.65l0.572-0.104
		c0.155-0.026,0.025,0.013,0.571-0.104c0.234-0.052,0.469-0.091,0.611-0.233c0.143-0.144,0.156-0.313,0.156-0.442
		c0-0.221-0.052-0.39-0.26-0.533c-0.247-0.182-0.611-0.208-0.846-0.208c-0.637,0-0.91,0.195-0.988,0.261
		c-0.13,0.104-0.312,0.324-0.324,0.688H63.93c0.038-0.533,0.26-1.144,0.688-1.534c0.611-0.546,1.547-0.585,2.028-0.585
		c0.429,0,1.469,0.026,2.015,0.624c0.416,0.442,0.442,1.027,0.442,1.417V7.657z M66.581,6.085c-0.455,0.104-0.832,0.169-1.092,0.351
		c-0.208,0.156-0.325,0.351-0.325,0.663c0,0.208,0.052,0.468,0.286,0.663s0.56,0.234,0.806,0.234c0.741,0,1.093-0.3,1.262-0.599
		c0.208-0.351,0.221-0.857,0.208-1.612c-0.234,0.078-0.521,0.156-0.793,0.222L66.581,6.085z"/>
	<path class="st0" d="M75.824,2.562v6.617h-1.403V3.822h-1.612c-0.052,0.897-0.144,1.716-0.26,2.535
		c-0.144,0.91-0.313,1.612-0.663,2.093c-0.611,0.832-1.586,0.832-2.106,0.768V7.996c0.286,0,0.572-0.039,0.806-0.208
		c0.378-0.273,0.494-0.793,0.572-1.184c0.156-0.819,0.286-2.041,0.325-2.587l0.104-1.456H75.824z"/>
	<path class="st0" d="M78.788,2.562v2.366h1.508c0.638,0,1.365,0,2.028,0.546C82.845,5.902,83,6.423,83,7.072
		c0,0.416-0.091,1.066-0.624,1.561c-0.546,0.494-1.248,0.546-1.625,0.546h-3.367V2.562H78.788z M78.788,7.957h1.664
		c0.286,0,0.599-0.065,0.793-0.234c0.144-0.13,0.286-0.364,0.286-0.676c0-0.416-0.169-0.65-0.299-0.754
		c-0.247-0.208-0.585-0.222-0.767-0.222h-1.678V7.957z"/>
	<path class="st0" d="M88.122,6.357h-2.678v2.821H84.04V2.562h1.404v2.535h2.678V2.562h1.404v6.617h-1.404V6.357z"/>
	<path class="st0" d="M92.49,2.562v2.366h1.339c0.637,0,1.365,0,2.028,0.546c0.52,0.429,0.676,0.949,0.676,1.599
		c0,0.416-0.091,1.066-0.624,1.561c-0.546,0.494-1.248,0.546-1.625,0.546h-3.198V2.562H92.49z M92.49,7.957h1.534
		c0.285,0,0.598-0.065,0.793-0.234c0.143-0.13,0.286-0.364,0.286-0.676c0-0.416-0.17-0.65-0.3-0.754
		c-0.247-0.208-0.585-0.222-0.767-0.222H92.49V7.957z M98.938,9.179h-1.404V2.562h1.404V9.179z"/>
	<path class="st0" d="M104.801,5.253l-2.898,3.081v0.845h-1.404V2.562h1.404v3.926l2.898-3.081V2.562h1.404v6.617h-1.404V5.253z
		 M105.295,0.313c0,0.39-0.117,0.832-0.338,1.118c-0.233,0.299-0.702,0.624-1.612,0.624c-0.909,0-1.378-0.325-1.611-0.624
		c-0.222-0.286-0.338-0.729-0.338-1.118h1.195c-0.013,0.182,0.039,0.377,0.144,0.507c0.182,0.221,0.441,0.234,0.61,0.234
		s0.43-0.014,0.611-0.234c0.104-0.13,0.156-0.325,0.144-0.507H105.295z"/>
	<path class="st0" d="M115.825,4.901c-0.091-0.247-0.261-0.559-0.455-0.754c-0.195-0.195-0.546-0.416-1.054-0.416
		c-0.441,0-0.779,0.182-1.04,0.455c-0.272,0.286-0.571,0.78-0.571,1.625c0,0.481,0.091,0.949,0.286,1.313
		c0.194,0.363,0.598,0.832,1.352,0.832c0.494,0,0.832-0.222,1.053-0.43c0.208-0.194,0.364-0.48,0.455-0.715l1.248,0.676
		c-0.233,0.521-0.61,1.04-1.079,1.365c-0.48,0.338-1.079,0.507-1.703,0.507c-1.156,0-1.833-0.559-2.118-0.845
		c-0.586-0.598-0.976-1.534-0.976-2.678c0-1.054,0.352-1.938,0.923-2.535c0.546-0.572,1.326-0.923,2.21-0.923
		c0.716,0,1.313,0.233,1.742,0.559c0.638,0.481,0.949,1.183,1.015,1.352L115.825,4.901z"/>
	<path class="st0" d="M122.169,3.822h-2.574v5.356h-1.404V2.562h5.383v6.617h-1.404V3.822z"/>
	<path class="st0" d="M124.743,5.863c0-2.066,1.261-3.483,3.106-3.483c1.833,0,3.107,1.391,3.107,3.483
		c0,1.977-1.183,3.497-3.107,3.497C126.017,9.36,124.743,7.97,124.743,5.863z M127.85,8.009c1.027,0,1.639-0.91,1.639-2.146
		c0-1.469-0.807-2.145-1.639-2.145s-1.638,0.688-1.638,2.145C126.212,7.099,126.823,8.009,127.85,8.009z"/>
	<path class="st0" d="M136.209,6.357h-2.678v2.821h-1.404V2.562h1.404v2.535h2.678V2.562h1.404v6.617h-1.404V6.357z"/>
	<path class="st0" d="M143.385,4.901c-0.091-0.247-0.26-0.559-0.455-0.754c-0.194-0.195-0.546-0.416-1.053-0.416
		c-0.442,0-0.78,0.182-1.04,0.455c-0.273,0.286-0.572,0.78-0.572,1.625c0,0.481,0.091,0.949,0.286,1.313
		c0.195,0.363,0.598,0.832,1.353,0.832c0.493,0,0.832-0.222,1.053-0.43c0.208-0.194,0.364-0.48,0.455-0.715l1.248,0.676
		c-0.234,0.521-0.611,1.04-1.079,1.365c-0.481,0.338-1.079,0.507-1.703,0.507c-1.157,0-1.833-0.559-2.119-0.845
		c-0.585-0.598-0.975-1.534-0.975-2.678c0-1.054,0.351-1.938,0.923-2.535c0.546-0.572,1.326-0.923,2.21-0.923
		c0.715,0,1.313,0.233,1.742,0.559c0.637,0.481,0.949,1.183,1.014,1.352L143.385,4.901z"/>
	<path class="st0" d="M145.191,5.863c0-2.066,1.261-3.483,3.107-3.483c1.833,0,3.106,1.391,3.106,3.483
		c0,1.977-1.183,3.497-3.106,3.497C146.466,9.36,145.191,7.97,145.191,5.863z M148.299,8.009c1.026,0,1.638-0.91,1.638-2.146
		c0-1.469-0.806-2.145-1.638-2.145s-1.639,0.688-1.639,2.145C146.66,7.099,147.271,8.009,148.299,8.009z"/>
	<path class="st0" d="M152.575,2.562h1.404v0.624c0.208-0.247,0.702-0.729,1.716-0.729c0.638,0,1.443,0.183,2.067,0.976
		c0.352,0.441,0.754,1.209,0.754,2.47c0,2.002-1.065,3.458-2.821,3.458c-0.441,0-1.144-0.091-1.716-0.74v2.34h-1.404V2.562z
		 M154.356,7.527c0.313,0.416,0.768,0.481,1.093,0.481c0.507,0,0.896-0.182,1.183-0.572c0.208-0.286,0.403-0.767,0.403-1.534
		c0-0.845-0.222-1.365-0.508-1.664c-0.208-0.221-0.559-0.441-1.117-0.441c-0.377,0-0.638,0.116-0.832,0.26
		c-0.585,0.455-0.599,1.378-0.599,1.846S154.019,7.072,154.356,7.527z"/>
</g>
<g>
	<g>
		<path class="st0" d="M41.705,35.077c0.662,0.728,1.456,1.258,2.449,1.655s2.118,0.596,3.508,0.596
			c0.662,0,1.324-0.066,1.854-0.132c0.596-0.066,1.059-0.199,1.523-0.397c0.463-0.132,0.861-0.331,1.258-0.463
			c0.331-0.199,0.662-0.331,0.927-0.463l-0.463-0.993c-0.265,0.132-0.53,0.265-0.794,0.397c-0.265,0.132-0.53,0.199-0.861,0.331
			c-0.331,0.066-0.662,0.199-1.059,0.199c-0.397,0.066-0.861,0.066-1.39,0.066c-0.993,0-1.854-0.199-2.449-0.596
			c-0.662-0.397-1.125-0.927-1.523-1.523c-0.331-0.662-0.596-1.456-0.728-2.317c-0.132-0.927-0.199-1.854-0.199-2.913
			c0-0.794,0.066-1.655,0.132-2.516s0.265-1.589,0.596-2.251c0.331-0.662,0.728-1.192,1.324-1.655
			c0.596-0.397,1.39-0.662,2.383-0.662c0.927,0,1.721,0.265,2.383,0.728c0.662,0.463,1.059,1.258,1.258,2.251h1.059v-3.244
			c-0.331-0.132-0.662-0.265-1.059-0.397c-0.397-0.132-0.794-0.199-1.258-0.265c-0.463-0.066-0.861-0.066-1.324-0.132
			c-0.397,0-0.794-0.066-1.125-0.066c-1.456,0-2.648,0.199-3.707,0.596c-0.993,0.397-1.854,0.993-2.516,1.721
			c-0.662,0.728-1.125,1.655-1.456,2.714c-0.331,1.059-0.463,2.317-0.463,3.641c0,1.258,0.132,2.449,0.463,3.442
			C40.645,33.555,41.109,34.415,41.705,35.077z"/>
	</g>
	<g>
		<path class="st0" d="M106.446,36.798c0.794-0.066,1.589-0.331,2.185-0.662c0.662-0.397,1.192-0.927,1.523-1.655
			c0.397-0.728,0.596-1.721,0.596-2.979c0-0.927-0.132-1.655-0.397-2.317c-0.265-0.662-0.662-1.125-1.258-1.589
			c-0.596-0.397-1.324-0.662-2.251-0.861s-2.052-0.265-3.376-0.265h-1.39v-3.906c0-0.397,0.066-0.662,0.265-0.794
			c0.199-0.132,0.53-0.132,1.059-0.132h1.986c0.596,0,1.125,0,1.523,0.066c0.397,0.066,0.728,0.132,0.927,0.331
			c0.265,0.199,0.463,0.463,0.596,0.794c0.132,0.331,0.331,0.794,0.463,1.39h0.861V20.58H98.502h-0.927v0.53
			c0.066,0,0.132,0.066,0.331,0.066c0.199,0.066,0.331,0.132,0.397,0.199c0.066,0.066,0.132,0.199,0.199,0.397
			c0,0.199,0.066,0.397,0.066,0.662v3.31v6.024v3.31c0,0.265,0,0.53-0.066,0.662c0,0.199-0.066,0.331-0.199,0.397
			c-0.066,0.066-0.199,0.199-0.397,0.199c-0.199,0.066-0.265,0.066-0.331,0.066v0.53h6.156
			C104.725,36.931,105.585,36.931,106.446,36.798z M102.408,35.607c-0.132-0.132-0.199-0.265-0.199-0.463
			c0-0.199-0.066-0.463-0.066-0.794v-6.885h1.39c1.258,0,2.185,0.331,2.714,0.993c0.53,0.662,0.794,1.721,0.794,3.177
			c0,0.993-0.066,1.721-0.265,2.317c-0.199,0.596-0.397,0.993-0.728,1.324c-0.331,0.265-0.662,0.463-0.993,0.596
			c-0.397,0.066-0.794,0.132-1.192,0.132c-0.397-0.066-0.728-0.066-0.927-0.132C102.739,35.806,102.54,35.739,102.408,35.607z"/>
	</g>
	<g>
		<path class="st0" d="M89.036,36.401c-0.066,0-0.132-0.066-0.331-0.066c-0.199-0.066-0.331-0.132-0.397-0.199
			c-0.066-0.066-0.132-0.199-0.199-0.397c0-0.199-0.066-0.397-0.066-0.662V30.51h1.655c0.861,0,1.655-0.066,2.449-0.199
			c0.794-0.132,1.456-0.397,2.052-0.728c0.596-0.397,1.059-0.861,1.39-1.589c0.331-0.662,0.53-1.589,0.53-2.714
			c0-1.059-0.199-1.92-0.463-2.516c-0.331-0.596-0.794-1.125-1.324-1.456c-0.53-0.331-1.192-0.53-1.92-0.596
			c-0.728-0.066-1.456-0.132-2.251-0.132h-5.561h-0.927v0.53c0.066,0,0.132,0.066,0.331,0.066c0.199,0.066,0.331,0.132,0.397,0.199
			c0.066,0.066,0.132,0.199,0.199,0.397c0,0.199,0.066,0.397,0.066,0.662v12.578c0,0.265,0,0.53-0.066,0.662
			c0,0.199-0.066,0.331-0.199,0.397c-0.066,0.066-0.199,0.199-0.397,0.199c-0.199,0.066-0.265,0.066-0.331,0.066v0.53h5.362
			L89.036,36.401L89.036,36.401z M88.109,22.434c0-0.132,0-0.265,0.066-0.397c0-0.132,0.066-0.199,0.132-0.265
			c0.066-0.066,0.199-0.132,0.397-0.132s0.397-0.066,0.728-0.066c0.397,0,0.794,0.066,1.192,0.132
			c0.397,0.132,0.662,0.331,0.993,0.596c0.265,0.265,0.463,0.662,0.662,1.125c0.132,0.463,0.199,1.059,0.199,1.721
			c0,1.39-0.199,2.449-0.596,3.177c-0.397,0.728-1.125,1.125-2.118,1.125h-1.655L88.109,22.434L88.109,22.434z"/>
	</g>
	<g>
		<path class="st0" d="M81.489,33.158H80.43c-0.132,0.662-0.265,1.125-0.397,1.523s-0.265,0.662-0.53,0.861
			c-0.199,0.199-0.53,0.331-0.927,0.331c-0.397,0.066-0.927,0.066-1.655,0.066c-0.662,0-1.192,0-1.523-0.066
			c-0.397-0.066-0.662-0.132-0.861-0.265c-0.199-0.132-0.331-0.331-0.331-0.53c-0.066-0.265-0.066-0.53-0.066-0.927v-5.163h2.185
			c0.199,0,0.397,0,0.662,0c0.265,0,0.53,0.066,0.794,0.066c0.265,0,0.53,0.066,0.794,0.132c0.265,0.066,0.463,0.132,0.662,0.265
			v-2.118c-0.199,0.132-0.397,0.199-0.662,0.265s-0.53,0.132-0.794,0.132c-0.265,0.066-0.53,0.066-0.794,0.066
			c-0.265,0-0.463,0-0.662,0h-2.185v-5.428c0-0.331,0.066-0.596,0.132-0.728c0.132-0.132,0.331-0.132,0.662-0.132h1.787
			c0.596,0,1.125,0,1.523,0.066c0.397,0.066,0.728,0.132,0.927,0.331c0.265,0.199,0.463,0.463,0.596,0.794
			c0.132,0.331,0.331,0.794,0.463,1.39h0.861V20.58H70.633h-0.927v0.53c0.066,0,0.132,0.066,0.331,0.066
			c0.199,0.066,0.331,0.132,0.397,0.199c0.066,0.066,0.132,0.199,0.199,0.397c0,0.199,0.066,0.397,0.066,0.662v12.578
			c0,0.265,0,0.53-0.066,0.662c0,0.199-0.066,0.331-0.199,0.397c-0.066,0.066-0.199,0.199-0.397,0.199
			c-0.199,0.066-0.265,0.066-0.331,0.066v0.53h11.783C81.489,36.865,81.489,33.158,81.489,33.158z"/>
	</g>
	<g>
		<path class="st0" d="M63.484,36.798c0.794-0.066,1.589-0.331,2.185-0.662c0.662-0.397,1.192-0.927,1.589-1.655
			s0.596-1.721,0.596-2.979c0-0.927-0.132-1.655-0.397-2.317s-0.662-1.125-1.258-1.589c-0.596-0.397-1.324-0.662-2.251-0.861
			c-0.927-0.199-2.052-0.265-3.376-0.265h-1.39v-3.906c0-0.397,0.066-0.662,0.265-0.794c0.199-0.132,0.53-0.132,1.059-0.132h1.986
			c0.596,0,1.125,0,1.523,0.066s0.728,0.132,0.927,0.331c0.265,0.199,0.463,0.463,0.596,0.794c0.132,0.331,0.331,0.794,0.463,1.39
			h0.861V20.58H55.606h-0.927v0.53c0.066,0,0.132,0.066,0.331,0.066c0.199,0.066,0.331,0.132,0.397,0.199
			c0.066,0.066,0.132,0.199,0.199,0.397c0,0.199,0.066,0.397,0.066,0.662v0.331v2.913v5.958v2.449c0,0,0,0,0,0.066v0.861
			c0,0.265,0,0.463-0.066,0.662c0,0.199-0.066,0.331-0.199,0.397c-0.066,0.066-0.199,0.199-0.397,0.199
			c-0.199,0.066-0.265,0.066-0.331,0.066v0.596h6.156C61.829,36.931,62.623,36.931,63.484,36.798z M59.446,35.607
			c-0.132-0.132-0.199-0.265-0.199-0.463c0-0.199-0.066-0.463-0.066-0.794v-6.885h1.39c1.258,0,2.185,0.331,2.714,0.993
			c0.53,0.662,0.794,1.721,0.794,3.177c0,0.993-0.066,1.721-0.265,2.317c-0.199,0.596-0.397,0.993-0.728,1.324
			c-0.331,0.265-0.662,0.463-0.993,0.596c-0.397,0.066-0.794,0.132-1.192,0.132c-0.397-0.066-0.662-0.066-0.927-0.132
			C59.777,35.806,59.578,35.739,59.446,35.607z"/>
	</g>
	<g>
		<rect x="39.851" y="41.565" class="st0" width="120.017" height="1.589"/>
	</g>
	<g>
		<path class="st0" d="M150.269,30.775c0.331,0.463,0.596,0.861,0.927,1.258c0.265,0.397,0.596,0.794,0.861,1.192
			c0.265,0.397,0.53,0.794,0.861,1.192c0.331,0.463,0.596,0.861,0.861,1.324c0.265,0.397,0.463,0.861,0.662,1.258L160,37.063
			c-0.596-0.596-1.125-1.192-1.721-1.787c-0.53-0.596-0.993-1.125-1.324-1.456c-0.53-0.596-0.993-1.125-1.39-1.589
			c-0.463-0.53-0.861-0.993-1.258-1.456c-0.397-0.463-0.794-0.993-1.125-1.456c-0.331-0.463-0.728-1.059-1.059-1.589l0.265-0.331
			c0.397-0.53,0.861-1.059,1.39-1.721s1.059-1.324,1.655-1.92c0.596-0.662,1.125-1.258,1.721-1.787
			c0.596-0.53,1.059-0.927,1.523-1.258h-3.839c-0.132,0.331-0.331,0.728-0.596,1.192c-0.265,0.463-0.53,0.993-0.927,1.523
			c-0.331,0.53-0.728,1.125-1.059,1.721c-0.397,0.596-0.728,1.125-1.125,1.655c-0.397,0.53-0.728,1.059-1.059,1.456
			c-0.331,0.463-0.596,0.794-0.794,1.125C149.607,29.848,149.938,30.311,150.269,30.775z"/>
	</g>
	<g>
		<path class="st0" d="M149.806,36.401c-0.066,0-0.132-0.066-0.331-0.066c-0.199-0.066-0.331-0.132-0.397-0.199
			c-0.066-0.066-0.132-0.199-0.199-0.397c0-0.199-0.066-0.397-0.066-0.662V22.5c0-0.265,0-0.53,0.066-0.662
			c0-0.199,0.066-0.331,0.199-0.397c0.066-0.066,0.199-0.132,0.397-0.199s0.265-0.066,0.331-0.066V20.58h-4.435h-0.927v0.53
			c0.066,0,0.132,0.066,0.331,0.066c0.199,0.066,0.331,0.132,0.397,0.199c0.066,0.066,0.132,0.199,0.199,0.397
			c0,0.199,0.066,0.397,0.066,0.662v12.578c0,0.265,0,0.53-0.066,0.662c0,0.199-0.066,0.331-0.199,0.397
			c-0.066,0.066-0.199,0.199-0.397,0.199c-0.199,0.066-0.265,0.066-0.331,0.066v0.53h5.362V36.401L149.806,36.401z"/>
	</g>
	<g>
		<path class="st0" d="M114.191,34.945c0.199-0.927,0.596-2.251,1.125-3.906h5.23l0.728,2.118c0.331,0.927,0.596,1.721,0.728,2.383
			c0.199,0.662,0.331,1.125,0.331,1.456h4.17c-0.199-0.331-0.397-0.794-0.662-1.324c-0.265-0.53-0.596-1.324-0.927-2.317
			l-3.773-10.724c-0.199-0.463-0.265-0.861-0.331-1.192c-0.066-0.331-0.066-0.596-0.132-0.794h-4.7v0.53
			c0.066,0,0.132,0.066,0.331,0.066c0.199,0.066,0.331,0.132,0.397,0.199c0.066,0.066,0.132,0.199,0.199,0.397
			c0,0.132,0,0.199,0,0.331c0,0.397-0.066,0.794-0.199,1.059l-2.648,6.487c-0.463,1.192-0.927,2.251-1.258,3.045
			c-0.331,0.794-0.662,1.523-0.861,2.052c-0.265,0.53-0.463,0.993-0.662,1.324c-0.199,0.331-0.331,0.596-0.463,0.861h2.979
			C113.86,36.534,113.993,35.872,114.191,34.945z M117.964,23.294l2.185,6.62h-4.501L117.964,23.294z"/>
	</g>
	<g>
		<path class="st0" d="M132.793,36.401h-0.132c-0.066,0-0.132-0.066-0.331-0.066c-0.199-0.066-0.331-0.132-0.397-0.199
			c-0.066-0.066-0.132-0.199-0.199-0.397c0-0.199-0.066-0.397-0.066-0.662v-6.289h6.355v6.223c0,0.265,0,0.53-0.066,0.662
			c0,0.199-0.066,0.331-0.199,0.397c-0.066,0.066-0.199,0.199-0.397,0.199c-0.199,0.066-0.265,0.066-0.331,0.066v0.53h5.362v-0.53
			c-0.066,0-0.132-0.066-0.331-0.066c-0.199-0.066-0.331-0.132-0.397-0.199c-0.066-0.066-0.132-0.199-0.199-0.397
			c0-0.199-0.066-0.397-0.066-0.662v-3.244v-0.132v-5.958v-0.066v-3.244c0-0.265,0-0.53,0.066-0.662
			c0-0.199,0.066-0.331,0.199-0.397c0.066-0.066,0.199-0.132,0.397-0.199c0.199-0.066,0.265-0.066,0.331-0.066V20.58h-4.435h-0.794
			v0.53c0.066,0,0.132,0.066,0.331,0.066c0.199,0.066,0.331,0.132,0.397,0.199c0.066,0.066,0.132,0.199,0.199,0.397
			c0,0.199,0.066,0.397,0.066,0.662v5.23H131.8v-5.23c0-0.265,0-0.53,0.066-0.662c0-0.199,0.066-0.331,0.199-0.397
			c0.066-0.066,0.199-0.132,0.397-0.199c0.199-0.066,0.265-0.066,0.331-0.066v-0.53h-4.435h-0.927v0.53
			c0.066,0,0.132,0.066,0.331,0.066c0.199,0.066,0.331,0.132,0.397,0.199c0.066,0.066,0.132,0.199,0.199,0.397
			c0,0.199,0.066,0.397,0.066,0.662v0.397v11.32v0.066v0.861c0,0.265,0,0.463-0.066,0.662c0,0.199-0.066,0.331-0.199,0.397
			c-0.066,0.066-0.199,0.199-0.397,0.199c-0.199,0.066-0.265,0.066-0.331,0.066v0.53h5.362L132.793,36.401L132.793,36.401z"/>
	</g>
	<g>
		<path class="st0" d="M28.928,22.301c-0.331-0.463-0.662-0.927-0.993-1.39L9.599,31.436l-8.871-5.097
			c-0.199,0.596-0.331,1.125-0.397,1.721l9.334,5.362L28.928,22.301z"/>
	</g>
	<g>
		<path class="st0" d="M9.599,35.408l-9.532-5.494C0,30.245,0,30.642,0,30.973c0,8.672,7.017,15.755,15.755,15.755
			c8.672,0,15.755-7.017,15.755-15.755c0-2.582-0.596-5.031-1.721-7.149L9.599,35.408z"/>
	</g>
	<g>
		<path class="st0" d="M26.678,19.587c-0.463-0.463-0.927-0.794-1.39-1.192L9.599,27.465l-7.547-4.303
			c-0.265,0.463-0.53,0.993-0.794,1.523l8.275,4.766L26.678,19.587z"/>
	</g>
	<g>
		<path class="st0" d="M23.699,17.336c-0.596-0.331-1.192-0.662-1.854-0.927L9.599,23.493l-5.494-3.111
			c-0.397,0.397-0.728,0.861-1.125,1.324l6.554,3.773L23.699,17.336z"/>
	</g>
</g>
</svg>
