<?xml version="1.0" encoding="utf-8"?>
<!-- Generator: Adobe Illustrator 21.1.0, SVG Export Plug-In . SVG Version: 6.00 Build 0)  -->
<svg version="1.1" id="Слой_1" xmlns="http://www.w3.org/2000/svg" xmlns:xlink="http://www.w3.org/1999/xlink" x="0px" y="0px"
	 viewBox="0 0 82.521 49.649" style="enable-background:new 0 0 82.521 49.649;" xml:space="preserve">
<style type="text/css">
	.st0{fill:#FFFFFF;}
</style>
<g>
	<path class="st0" d="M71.709,13.534h1.251c0.136,0,0.388,0.009,0.573,0.165c0.097,0.078,0.223,0.252,0.223,0.563
		c0,0.233-0.107,0.407-0.213,0.505c-0.145,0.126-0.379,0.175-0.592,0.175h-1.242V13.534z M71.709,10.914h-1.048v4.939h2.513
		c0.281,0,0.805-0.039,1.213-0.407c0.398-0.369,0.465-0.854,0.465-1.165c0-0.485-0.116-0.873-0.505-1.193
		c-0.494-0.407-1.038-0.407-1.513-0.407h-1.126V10.914z M66.072,14.814c-0.175,0.127-0.388,0.156-0.601,0.156v0.912
		c0.388,0.049,1.115,0.049,1.572-0.572c0.262-0.359,0.388-0.883,0.494-1.562c0.087-0.612,0.155-1.223,0.194-1.892h1.203v3.997h1.048
		v-4.939H66.82l-0.078,1.087c-0.029,0.407-0.127,1.32-0.243,1.931C66.441,14.222,66.354,14.611,66.072,14.814 M63.971,13.321
		c0.009,0.562,0,0.941-0.156,1.203c-0.126,0.223-0.388,0.446-0.941,0.446c-0.185,0-0.427-0.029-0.601-0.175
		c-0.175-0.146-0.214-0.34-0.214-0.495c0-0.233,0.087-0.378,0.243-0.494c0.194-0.136,0.476-0.185,0.815-0.263l0.262-0.058
		C63.582,13.436,63.796,13.378,63.971,13.321 M63.777,11.796c0.155,0.107,0.194,0.233,0.194,0.398c0,0.097-0.009,0.223-0.116,0.329
		c-0.107,0.107-0.281,0.136-0.457,0.175c-0.407,0.088-0.31,0.058-0.426,0.078l-0.428,0.078c-0.077,0.02-0.843,0.156-1.222,0.485
		c-0.242,0.204-0.417,0.534-0.417,1.019c0,0.524,0.223,0.883,0.485,1.126c0.388,0.349,0.873,0.427,1.232,0.427
		c0.379,0,0.873-0.068,1.329-0.514c0,0.02,0,0.136,0.049,0.233c0.039,0.078,0.116,0.165,0.204,0.223h0.961
		c-0.136-0.301-0.165-0.534-0.165-1.135v-2.426c0-0.291-0.019-0.728-0.329-1.058c-0.408-0.446-1.184-0.465-1.504-0.465
		c-0.358,0-1.057,0.029-1.513,0.437c-0.321,0.291-0.485,0.747-0.514,1.145h1.028c0.009-0.271,0.145-0.436,0.243-0.514
		c0.058-0.049,0.262-0.194,0.737-0.194C63.321,11.642,63.592,11.661,63.777,11.796 M61.199,20.149h-1.097l1.523,4.939h1.115
		l1.543-4.939h-1.077l-0.864,2.94c-0.077,0.252-0.116,0.505-0.145,0.747c-0.049-0.388-0.126-0.631-0.155-0.747L61.199,20.149z
		 M59.412,14.329c0,0.175-0.039,0.379-0.214,0.514c-0.136,0.107-0.378,0.165-0.592,0.165h-1.378v-1.349h1.388
		c0.184,0,0.398,0.02,0.572,0.156C59.383,13.97,59.412,14.174,59.412,14.329 M59.189,12.292c0,0.097-0.02,0.262-0.156,0.388
		c-0.165,0.155-0.398,0.165-0.572,0.165h-1.233v-1.077h1.242c0.117,0,0.34,0.019,0.466,0.077
		C59.044,11.894,59.189,12.02,59.189,12.292 M60.208,13.505c-0.136-0.156-0.35-0.301-0.601-0.369
		c0.135-0.049,0.291-0.145,0.427-0.32c0.155-0.204,0.223-0.446,0.223-0.65c0-0.379-0.136-1.252-1.65-1.252H56.22v4.939l2.61,0.009
		c0.349,0,0.844-0.039,1.233-0.398c0.223-0.204,0.446-0.553,0.446-1.097C60.508,14.009,60.402,13.728,60.208,13.505 M57.131,27.474
		h-1.057v6.85h1.057V27.474z M56.669,22.022c0.048-0.321,0.204-0.582,0.388-0.757c0.146-0.136,0.398-0.301,0.737-0.301
		c0.252,0,0.515,0.097,0.718,0.301c0.068,0.068,0.3,0.32,0.34,0.757H56.669z M56.301,20.596c-0.417,0.398-0.767,1.077-0.767,1.97
		c0,0.815,0.272,1.504,0.689,1.95c0.34,0.359,0.902,0.698,1.688,0.698c0.504,0,0.961-0.135,1.387-0.446
		c0.3-0.214,0.553-0.505,0.747-0.806l-0.873-0.494c-0.126,0.213-0.281,0.378-0.456,0.494c-0.223,0.145-0.456,0.233-0.737,0.233
		c-0.233,0-0.737-0.048-1.077-0.562c-0.127-0.185-0.214-0.428-0.233-0.699h3.405v-0.058c0-0.961-0.271-1.582-0.543-1.97
		c-0.301-0.417-0.864-0.893-1.756-0.893C57.174,20.013,56.659,20.256,56.301,20.596 M52.31,32.771c0-0.233,0.087-0.378,0.243-0.494
		c0.193-0.136,0.475-0.185,0.814-0.263l0.262-0.058c0.204-0.049,0.417-0.107,0.592-0.165v0.31c0,0.31-0.01,0.641-0.156,0.893
		c-0.126,0.223-0.398,0.446-0.941,0.446c-0.185,0-0.427-0.029-0.601-0.175C52.349,33.12,52.31,32.926,52.31,32.771 M51.573,31.81
		c-0.242,0.204-0.417,0.534-0.417,1.019c0,0.524,0.223,0.883,0.485,1.126c0.388,0.349,0.873,0.427,1.233,0.427
		c0.378,0,0.873-0.068,1.329-0.514c0,0.02,0,0.136,0.049,0.233c0.039,0.078,0.116,0.165,0.204,0.223h0.961
		c-0.136-0.301-0.165-0.534-0.165-1.135v-2.426c0-0.291-0.02-0.728-0.33-1.057c-0.407-0.446-1.183-0.466-1.504-0.466
		c-0.359,0-1.057,0.029-1.513,0.437c-0.321,0.291-0.486,0.747-0.515,1.145h1.029c0.009-0.271,0.145-0.436,0.242-0.514
		c0.058-0.049,0.262-0.194,0.737-0.194c0.175,0,0.446,0.02,0.631,0.156c0.155,0.106,0.194,0.233,0.194,0.398
		c0,0.097-0.01,0.223-0.116,0.329c-0.107,0.107-0.281,0.136-0.457,0.175c-0.407,0.087-0.31,0.058-0.427,0.077l-0.427,0.078
		C52.717,31.344,51.951,31.48,51.573,31.81 M54.359,10.914v0.631l-2.163,2.299v-2.93h-1.048v4.939h1.048v-0.63l2.163-2.3v2.93h1.048
		v-4.939H54.359z M49.112,15.852v-3.997h1.523v-0.942h-4.095v0.942h1.523v3.997H49.112z M49.523,20.062
		c-0.524,0-1.029,0.204-1.378,0.553v-2.377h-1.048v6.85h1.048v-2.93c0-0.427,0.204-0.698,0.359-0.843
		c0.135-0.127,0.388-0.301,0.776-0.301c0.31,0,0.494,0.116,0.582,0.204c0.233,0.223,0.252,0.592,0.252,0.766v3.105h1.048v-3.299
		C51.163,20.654,50.464,20.062,49.523,20.062 M51.985,19.421h1.057v-1.184h-1.057V19.421z M53.043,20.149h-1.057v4.939h1.057V20.149
		z M54.963,18.238h-1.057v6.85h1.057V18.238z M48.186,29.385H47.09l1.523,4.939h1.116l1.542-4.939h-1.077l-0.863,2.94
		c-0.078,0.252-0.116,0.505-0.145,0.748c-0.049-0.388-0.127-0.631-0.156-0.748L48.186,29.385z M43.582,14.32
		c-0.145-0.272-0.214-0.621-0.214-0.98c0-0.63,0.223-0.999,0.427-1.213c0.194-0.204,0.446-0.34,0.777-0.34
		c0.378,0,0.641,0.165,0.786,0.31c0.145,0.145,0.271,0.378,0.34,0.563l0.961-0.456c-0.049-0.126-0.281-0.65-0.757-1.009
		c-0.32-0.242-0.766-0.417-1.3-0.417c-0.66,0-1.242,0.262-1.649,0.689c-0.427,0.446-0.689,1.106-0.689,1.892
		c0,0.854,0.292,1.552,0.728,1.999c0.214,0.213,0.718,0.63,1.582,0.63c0.465,0,0.912-0.126,1.271-0.379
		c0.349-0.242,0.63-0.63,0.805-1.019l-0.931-0.504c-0.068,0.175-0.184,0.388-0.339,0.533c-0.165,0.156-0.417,0.321-0.786,0.321
		C44.029,14.941,43.728,14.591,43.582,14.32 M45.341,22.381c0,0.223-0.029,0.737-0.291,1.048c-0.107,0.127-0.349,0.33-0.795,0.33
		c-0.456,0-0.728-0.204-0.883-0.427c-0.223-0.33-0.243-0.777-0.243-0.951c0-1.339,0.922-1.377,1.126-1.377
		c0.398,0,0.63,0.145,0.757,0.281C45.332,21.614,45.341,22.216,45.341,22.381 M45.341,24.253v0.34c0,0.193-0.029,0.465-0.223,0.66
		c-0.252,0.242-0.738,0.252-0.951,0.252c-0.175,0-0.388-0.02-0.543-0.107c-0.156-0.097-0.223-0.262-0.233-0.398h-1.213
		c0.049,0.912,0.786,1.465,2.008,1.465c1.107,0,1.747-0.417,2.009-0.922c0.193-0.378,0.193-0.805,0.193-1.242v-4.153h-1.048v0.398
		c-0.233-0.242-0.611-0.494-1.242-0.494c-1.3,0-2.076,1.009-2.076,2.348c0,0.844,0.291,1.368,0.534,1.659
		c0.271,0.329,0.757,0.689,1.552,0.689c0.31,0,0.534-0.068,0.689-0.127C45.07,24.516,45.245,24.36,45.341,24.253 M46.492,29.385
		h-1.057v4.939h1.057V29.385z M46.492,27.474h-1.057v1.184h1.057V27.474z M42.798,29.385h-0.776v0.873h0.776v2.513
		c0,0.495,0.029,0.931,0.233,1.213c0.156,0.213,0.466,0.407,1.097,0.407c0.301,0,0.514-0.039,0.641-0.068v-0.902
		c-0.204,0.029-0.515,0.029-0.66-0.039c-0.252-0.116-0.252-0.398-0.252-0.679v-2.445h0.913v-0.873h-0.913v-1.717h-1.057V29.385z
		 M38.387,32.878l-0.806,0.689c0.127,0.136,0.407,0.427,0.854,0.621c0.427,0.185,0.961,0.252,1.368,0.252
		c0.795,0,1.29-0.272,1.591-0.572c0.233-0.233,0.456-0.582,0.456-1.116c0-0.436-0.136-0.756-0.407-0.99
		c-0.321-0.281-0.748-0.378-0.98-0.417l-0.63-0.106c-0.301-0.049-0.476-0.058-0.679-0.136c-0.145-0.049-0.31-0.145-0.31-0.388
		c0-0.135,0.058-0.32,0.34-0.436c0.204-0.087,0.456-0.097,0.592-0.097c0.242,0,0.427,0.039,0.64,0.116
		c0.292,0.107,0.505,0.263,0.66,0.398l0.63-0.679c-0.233-0.223-0.534-0.428-0.835-0.553c-0.271-0.107-0.64-0.194-1.067-0.194
		c-0.534,0-1.097,0.136-1.494,0.466c-0.223,0.184-0.534,0.543-0.534,1.106c0,0.611,0.291,0.931,0.699,1.126
		c0.281,0.135,0.592,0.193,0.892,0.242l0.301,0.049c0.388,0.058,0.592,0.087,0.776,0.155c0.165,0.059,0.321,0.156,0.321,0.437
		c0,0.145-0.058,0.3-0.214,0.417c-0.243,0.193-0.621,0.213-0.757,0.213c-0.291,0-0.553-0.058-0.757-0.136
		C38.785,33.237,38.551,33.062,38.387,32.878 M38.337,12.787c0.049-0.321,0.204-0.582,0.388-0.757
		c0.145-0.136,0.398-0.301,0.737-0.301c0.252,0,0.514,0.097,0.718,0.301c0.068,0.068,0.3,0.32,0.339,0.757H38.337z M38.57,14.397
		c-0.127-0.185-0.214-0.428-0.233-0.699h3.406v-0.058c0-0.961-0.272-1.582-0.543-1.97c-0.301-0.417-0.864-0.892-1.756-0.892
		c-0.602,0-1.116,0.242-1.475,0.582c-0.417,0.398-0.766,1.077-0.766,1.97c0,0.815,0.272,1.504,0.689,1.95
		c0.34,0.359,0.903,0.698,1.688,0.698c0.505,0,0.961-0.135,1.387-0.446c0.301-0.214,0.553-0.505,0.747-0.806l-0.873-0.494
		c-0.127,0.213-0.281,0.378-0.456,0.494c-0.223,0.145-0.456,0.233-0.737,0.233C39.414,14.96,38.91,14.912,38.57,14.397
		 M38.571,23.535c0-0.233,0.087-0.378,0.243-0.494c0.194-0.136,0.475-0.185,0.814-0.262l0.262-0.058
		c0.204-0.048,0.417-0.107,0.591-0.165v0.31c0,0.31-0.009,0.641-0.155,0.893c-0.126,0.223-0.398,0.446-0.941,0.446
		c-0.185,0-0.427-0.029-0.601-0.175C38.609,23.884,38.571,23.691,38.571,23.535 M37.834,22.575
		c-0.243,0.204-0.417,0.534-0.417,1.019c0,0.524,0.223,0.883,0.485,1.126c0.388,0.349,0.873,0.427,1.233,0.427
		c0.378,0,0.873-0.068,1.329-0.514c0,0.02,0,0.136,0.049,0.233c0.039,0.078,0.116,0.165,0.204,0.223h0.961
		c-0.136-0.301-0.165-0.534-0.165-1.135v-2.426c0-0.291-0.02-0.728-0.33-1.057c-0.407-0.446-1.184-0.466-1.504-0.466
		c-0.359,0-1.057,0.029-1.513,0.436c-0.321,0.292-0.486,0.748-0.515,1.145h1.029c0.009-0.271,0.145-0.436,0.242-0.514
		c0.059-0.049,0.262-0.194,0.737-0.194c0.175,0,0.446,0.02,0.631,0.155c0.155,0.107,0.193,0.233,0.193,0.398
		c0,0.097-0.009,0.223-0.116,0.329c-0.107,0.107-0.282,0.136-0.457,0.175c-0.407,0.088-0.31,0.059-0.427,0.078l-0.427,0.078
		C38.979,22.11,38.212,22.245,37.834,22.575 M33.954,31.257c0.049-0.32,0.204-0.582,0.388-0.756
		c0.145-0.136,0.398-0.301,0.737-0.301c0.252,0,0.514,0.097,0.718,0.301c0.068,0.068,0.301,0.32,0.34,0.756H33.954z M33.586,29.831
		c-0.417,0.398-0.766,1.077-0.766,1.97c0,0.815,0.271,1.504,0.689,1.95c0.34,0.358,0.902,0.698,1.688,0.698
		c0.505,0,0.961-0.135,1.387-0.446c0.301-0.214,0.553-0.505,0.747-0.806l-0.873-0.494c-0.126,0.213-0.281,0.378-0.456,0.494
		c-0.223,0.145-0.456,0.233-0.737,0.233c-0.233,0-0.737-0.048-1.077-0.563c-0.126-0.184-0.213-0.427-0.233-0.698h3.405v-0.058
		c0-0.961-0.271-1.582-0.543-1.97c-0.301-0.417-0.864-0.893-1.756-0.893C34.459,29.249,33.944,29.491,33.586,29.831 M33.034,12.321
		v2.173c-0.107,0.301-0.369,0.514-0.67,0.514c-0.175,0-0.388-0.039-0.553-0.272c-0.107-0.145-0.272-0.485-0.272-1.328
		c0-0.835,0.165-1.174,0.272-1.32c0.155-0.214,0.34-0.281,0.553-0.281C32.665,11.807,32.917,12.02,33.034,12.321 M34.082,12.321
		c0.116-0.301,0.369-0.514,0.67-0.514c0.213,0,0.398,0.068,0.553,0.281c0.107,0.145,0.272,0.485,0.272,1.32
		c0,0.843-0.165,1.183-0.272,1.328c-0.165,0.233-0.378,0.272-0.553,0.272c-0.301,0-0.563-0.213-0.67-0.514V12.321z M33.034,9.497
		v1.756c-0.349-0.388-0.747-0.417-0.931-0.417c-0.233,0-0.514,0.039-0.805,0.233c-0.767,0.524-0.864,1.63-0.864,2.338
		c0,0.708,0.097,1.814,0.864,2.338c0.291,0.194,0.572,0.233,0.805,0.233c0.185,0,0.582-0.028,0.931-0.417v1.62h1.048v-1.62
		c0.349,0.388,0.747,0.417,0.931,0.417c0.233,0,0.514-0.039,0.805-0.233c0.767-0.524,0.864-1.63,0.864-2.338
		c0-0.709-0.097-1.815-0.864-2.338c-0.291-0.194-0.572-0.233-0.805-0.233c-0.185,0-0.582,0.029-0.931,0.417V9.497H33.034z
		 M33.82,22.624c0,0.601-0.107,0.961-0.272,1.193c-0.252,0.349-0.601,0.378-0.825,0.378c-0.301,0-0.612-0.087-0.854-0.388
		c-0.214-0.262-0.33-0.66-0.33-1.184c0-0.534,0.136-0.961,0.359-1.223c0.271-0.31,0.641-0.349,0.825-0.349
		c0.233,0,0.505,0.049,0.718,0.252C33.81,21.663,33.82,22.342,33.82,22.624 M33.82,18.238v2.357
		c-0.321-0.349-0.728-0.543-1.28-0.543c-0.428,0-1.078,0.136-1.552,0.737c-0.31,0.388-0.544,1.009-0.544,1.834
		c0,0.718,0.185,1.378,0.553,1.843c0.465,0.592,1.077,0.728,1.543,0.728c0.756,0,1.125-0.359,1.28-0.543v0.436h1.048v-6.85H33.82z
		 M36.758,18.238h-1.057v1.184h1.057V18.238z M36.758,20.149h-1.057v4.939h1.057V20.149z M30.9,29.385h-0.777v0.873H30.9v4.065
		h1.048v-4.065h0.843v-0.873h-0.843v-0.34c0-0.524,0.077-0.737,0.65-0.737c0.097,0,0.184,0.01,0.262,0.02v-0.873
		c-0.165-0.049-0.33-0.068-0.505-0.068c-0.961,0-1.455,0.446-1.455,1.31V29.385z M33.839,5.705h-2.183
		c0.223-0.281,0.369-0.534,0.495-0.815c0.204-0.436,0.281-0.747,0.358-1.155c0.059-0.301,0.088-0.543,0.117-0.825l0.028-0.291h1.184
		V5.705z M34.518,7.801h1.049V5.676h-0.68V1.678h-3.104l-0.049,0.65c-0.039,0.543-0.126,1.378-0.476,2.184
		c-0.204,0.465-0.476,0.883-0.689,1.164h-0.524v2.125h1.048V6.617h3.425V7.801z M39.124,3.832h-1.193
		c-0.34,0-0.553-0.087-0.67-0.193c-0.087-0.078-0.185-0.223-0.185-0.466c0-0.223,0.097-0.378,0.204-0.465
		c0.175-0.145,0.417-0.156,0.601-0.156h1.242V3.832z M39.124,6.617h1.048V1.678h-2.484c-0.485,0-0.941,0.116-1.233,0.35
		c-0.281,0.223-0.475,0.601-0.475,1.086c0,0.446,0.175,0.757,0.369,0.931c0.204,0.185,0.533,0.301,0.815,0.33
		c-0.243,0.048-0.544,0.165-0.728,0.378c-0.185,0.204-0.243,0.456-0.272,0.612l-0.049,0.291c-0.039,0.233-0.068,0.417-0.175,0.66
		c-0.049,0.107-0.097,0.204-0.175,0.301h1.135c0.078-0.078,0.156-0.184,0.214-0.301c0.078-0.175,0.097-0.359,0.116-0.475
		l0.078-0.379c0.039-0.194,0.087-0.378,0.271-0.553c0.243-0.214,0.524-0.243,0.786-0.243h0.757V6.617z M41.898,2.62h2.222V1.678
		h-3.27v4.939h1.048V2.62z M47.738,6.617h1.048V1.678h-1.048v0.631l-2.164,2.299v-2.93h-1.048v4.939h1.048v-0.63l2.164-2.3V6.617z
		 M52.596,6.617h1.048V1.678h-3.163l-0.078,1.087c-0.029,0.407-0.126,1.32-0.242,1.931c-0.058,0.291-0.145,0.679-0.427,0.883
		c-0.175,0.126-0.388,0.155-0.602,0.155v0.912c0.388,0.049,1.116,0.049,1.572-0.572c0.262-0.359,0.388-0.883,0.495-1.562
		c0.087-0.612,0.155-1.223,0.193-1.892h1.203V6.617z M55.321,3.551c0.049-0.321,0.204-0.582,0.388-0.757
		c0.145-0.136,0.398-0.301,0.737-0.301c0.252,0,0.514,0.097,0.718,0.301c0.068,0.068,0.3,0.32,0.339,0.757H55.321z M55.321,4.463
		h3.406V4.405c0-0.961-0.272-1.582-0.543-1.97c-0.301-0.417-0.864-0.892-1.756-0.892c-0.602,0-1.116,0.242-1.475,0.582
		c-0.417,0.398-0.766,1.077-0.766,1.97c0,0.815,0.272,1.504,0.689,1.95c0.34,0.359,0.903,0.699,1.688,0.699
		c0.505,0,0.961-0.136,1.387-0.446c0.301-0.214,0.553-0.505,0.748-0.806l-0.873-0.494c-0.127,0.213-0.281,0.378-0.456,0.494
		c-0.223,0.145-0.456,0.233-0.737,0.233c-0.233,0-0.737-0.049-1.077-0.563C55.428,4.977,55.34,4.734,55.321,4.463 M62.46,5.094
		c0,0.175-0.039,0.378-0.214,0.514c-0.136,0.107-0.378,0.165-0.592,0.165h-1.377V4.424h1.387c0.184,0,0.398,0.02,0.572,0.156
		C62.431,4.734,62.46,4.939,62.46,5.094 M62.237,3.056c0,0.097-0.02,0.263-0.156,0.388c-0.164,0.155-0.398,0.165-0.572,0.165h-1.232
		V2.533h1.241c0.117,0,0.34,0.019,0.466,0.077C62.092,2.658,62.237,2.785,62.237,3.056 M63.256,4.269
		C63.12,4.113,62.907,3.968,62.655,3.9c0.135-0.049,0.291-0.145,0.427-0.32c0.155-0.204,0.223-0.446,0.223-0.65
		c0-0.379-0.136-1.252-1.65-1.252h-2.386v4.939l2.61,0.009c0.349,0,0.844-0.039,1.233-0.398c0.223-0.204,0.446-0.553,0.446-1.097
		C63.557,4.774,63.45,4.492,63.256,4.269 M67.416,3.425l0.961-0.456c-0.049-0.126-0.281-0.65-0.757-1.009
		c-0.321-0.242-0.766-0.417-1.3-0.417c-0.66,0-1.242,0.262-1.65,0.689c-0.427,0.446-0.689,1.106-0.689,1.892
		c0,0.854,0.291,1.552,0.728,1.999c0.213,0.213,0.718,0.63,1.582,0.63c0.465,0,0.912-0.127,1.271-0.379
		c0.349-0.242,0.63-0.63,0.805-1.018l-0.931-0.505c-0.068,0.175-0.184,0.388-0.34,0.534c-0.164,0.155-0.417,0.32-0.785,0.32
		c-0.563,0-0.864-0.349-1.009-0.621c-0.145-0.272-0.214-0.621-0.214-0.98c0-0.63,0.223-0.999,0.427-1.213
		c0.194-0.204,0.446-0.34,0.777-0.34c0.378,0,0.641,0.165,0.786,0.31C67.222,3.007,67.348,3.241,67.416,3.425 M71.946,6.617h1.106
		c-0.058-0.078-0.126-0.175-0.175-0.301c-0.087-0.213-0.126-0.456-0.165-0.669l-0.077-0.476c-0.039-0.214-0.097-0.592-0.33-0.844
		c-0.175-0.194-0.485-0.33-0.777-0.388c0.175-0.039,0.369-0.116,0.515-0.242c0.223-0.185,0.281-0.408,0.34-0.747l0.087-0.543
		c0.029-0.175,0.087-0.427,0.291-0.728h-1.067c-0.242,0.185-0.281,0.456-0.31,0.612l-0.058,0.359
		c-0.049,0.271-0.077,0.505-0.213,0.67c-0.194,0.233-0.505,0.242-0.65,0.242h-0.718V1.678h-1.048v4.939h1.048V4.454h0.825
		c0.146,0,0.515,0.009,0.737,0.233c0.165,0.165,0.204,0.417,0.223,0.543l0.097,0.612c0.029,0.184,0.049,0.329,0.107,0.465
		C71.791,6.442,71.859,6.539,71.946,6.617 M76.535,6.617h1.048V1.678h-1.048v0.631l-2.164,2.299v-2.93h-1.048v4.939h1.048v-0.63
		l2.164-2.3V6.617z M81.589,0.835C81.754,0.621,81.842,0.291,81.842,0h-0.893c0.01,0.136-0.029,0.281-0.106,0.379
		c-0.136,0.164-0.33,0.175-0.457,0.175c-0.126,0-0.32-0.01-0.456-0.175C79.853,0.281,79.814,0.136,79.824,0h-0.893
		c0,0.291,0.087,0.621,0.252,0.835C79.358,1.057,79.707,1.3,80.386,1.3C81.066,1.3,81.415,1.057,81.589,0.835 M82.521,6.617V1.678
		h-1.048v0.631l-2.164,2.299v-2.93h-1.048v4.939h1.048v-0.63l2.164-2.3v2.93H82.521z"/>
	<path class="st0" d="M7.732,34.187h7.731V8.723V1.725H7.732H0v6.997h7.732V34.187z M23.194,42.691v-6.958h-7.732H0.011v6.958
		h15.452v6.958h7.732V42.691z"/>
</g>
</svg>
