<?xml version="1.0" encoding="utf-8"?>
<!-- Generator: Adobe Illustrator 21.1.0, SVG Export Plug-In . SVG Version: 6.00 Build 0)  -->
<svg version="1.1" id="Слой_1" xmlns="http://www.w3.org/2000/svg" xmlns:xlink="http://www.w3.org/1999/xlink" x="0px" y="0px"
	 viewBox="0 0 233.39 30.319" style="enable-background:new 0 0 233.39 30.319;" xml:space="preserve">
<style type="text/css">
	.st0{fill:#FFFFFF;}
</style>
<g>
	<path class="st0" d="M0,7.08h3.942v1.035H1.08v5.32H0V7.08z"/>
	<path class="st0" d="M4.302,11.437c0.018,0.253,0.1,0.478,0.217,0.648c0.314,0.478,0.783,0.522,0.998,0.522
		c0.262,0,0.478-0.081,0.685-0.216c0.162-0.108,0.306-0.262,0.423-0.46l0.811,0.46c-0.18,0.278-0.414,0.549-0.693,0.747
		c-0.396,0.288-0.818,0.414-1.287,0.414c-0.729,0-1.252-0.315-1.566-0.648c-0.387-0.414-0.639-1.053-0.639-1.81
		c0-0.828,0.324-1.458,0.711-1.827c0.333-0.315,0.811-0.54,1.368-0.54c0.828,0,1.351,0.44,1.63,0.828
		c0.252,0.359,0.504,0.936,0.504,1.827v0.054H4.302z M6.327,10.591c-0.035-0.405-0.252-0.64-0.314-0.702
		C5.823,9.699,5.58,9.609,5.347,9.609c-0.315,0-0.55,0.153-0.685,0.279c-0.171,0.162-0.315,0.405-0.36,0.702H6.327z"/>
	<path class="st0" d="M11.116,11.483H9.261v1.953H8.288V8.854h0.973v1.755h1.855V8.854h0.972v4.582h-0.972V11.483z"/>
	<path class="st0" d="M13.968,11.437c0.018,0.253,0.1,0.478,0.217,0.648c0.314,0.478,0.783,0.522,0.998,0.522
		c0.262,0,0.478-0.081,0.685-0.216c0.162-0.108,0.306-0.262,0.423-0.46l0.811,0.46c-0.18,0.278-0.414,0.549-0.693,0.747
		c-0.396,0.288-0.818,0.414-1.287,0.414c-0.729,0-1.252-0.315-1.566-0.648c-0.387-0.414-0.639-1.053-0.639-1.81
		c0-0.828,0.324-1.458,0.711-1.827c0.333-0.315,0.811-0.54,1.368-0.54c0.828,0,1.351,0.44,1.63,0.828
		c0.252,0.359,0.504,0.936,0.504,1.827v0.054H13.968z M15.993,10.591c-0.035-0.405-0.252-0.64-0.314-0.702
		c-0.189-0.189-0.433-0.279-0.666-0.279c-0.315,0-0.55,0.153-0.685,0.279c-0.171,0.162-0.315,0.405-0.36,0.702H15.993z"/>
	<path class="st0" d="M17.954,8.854h0.973v0.432c0.145-0.171,0.486-0.504,1.188-0.504c0.441,0,0.999,0.126,1.432,0.675
		c0.243,0.307,0.522,0.838,0.522,1.711c0,1.387-0.738,2.395-1.954,2.395c-0.306,0-0.792-0.063-1.188-0.513v1.62h-0.973V8.854z
		 M19.188,12.292c0.216,0.288,0.531,0.333,0.756,0.333c0.352,0,0.621-0.126,0.819-0.396c0.144-0.198,0.278-0.531,0.278-1.063
		c0-0.585-0.152-0.945-0.351-1.152c-0.144-0.153-0.388-0.307-0.774-0.307c-0.261,0-0.441,0.081-0.576,0.181
		c-0.404,0.314-0.414,0.954-0.414,1.278S18.954,11.978,19.188,12.292z"/>
	<path class="st0" d="M26.479,12.382c0,0.559,0.026,0.774,0.152,1.054h-0.891c-0.082-0.054-0.154-0.135-0.189-0.207
		c-0.045-0.09-0.045-0.198-0.045-0.216c-0.424,0.414-0.883,0.477-1.234,0.477c-0.332,0-0.783-0.071-1.143-0.396
		c-0.243-0.226-0.45-0.559-0.45-1.045c0-0.45,0.162-0.756,0.388-0.945c0.351-0.306,1.062-0.432,1.134-0.45l0.396-0.071
		c0.108-0.019,0.019,0.009,0.396-0.072c0.162-0.036,0.324-0.063,0.424-0.162c0.099-0.099,0.107-0.216,0.107-0.306
		c0-0.153-0.036-0.271-0.18-0.369c-0.172-0.126-0.424-0.145-0.586-0.145c-0.44,0-0.63,0.135-0.684,0.18
		c-0.09,0.072-0.217,0.226-0.225,0.478h-0.955c0.027-0.369,0.18-0.792,0.478-1.063c0.423-0.378,1.071-0.405,1.404-0.405
		c0.297,0,1.017,0.019,1.396,0.433c0.288,0.306,0.307,0.711,0.307,0.981V12.382z M24.732,11.293
		c-0.315,0.072-0.576,0.117-0.757,0.243c-0.144,0.107-0.225,0.243-0.225,0.459c0,0.144,0.036,0.324,0.198,0.459
		s0.387,0.162,0.558,0.162c0.514,0,0.757-0.207,0.873-0.414c0.145-0.243,0.154-0.594,0.145-1.116
		c-0.162,0.054-0.359,0.108-0.549,0.153L24.732,11.293z"/>
	<path class="st0" d="M31.132,8.854v4.582h-0.973V9.727h-1.116c-0.036,0.621-0.099,1.188-0.181,1.756
		c-0.099,0.63-0.215,1.116-0.459,1.449c-0.423,0.576-1.098,0.576-1.458,0.531v-0.847c0.198,0,0.396-0.027,0.558-0.144
		c0.262-0.189,0.343-0.55,0.396-0.819c0.108-0.567,0.198-1.414,0.225-1.792l0.072-1.008H31.132z"/>
	<path class="st0" d="M33.183,8.854v1.638h1.045c0.441,0,0.945,0,1.404,0.379c0.359,0.297,0.468,0.657,0.468,1.107
		c0,0.288-0.063,0.737-0.433,1.08c-0.377,0.342-0.863,0.378-1.125,0.378H32.21V8.854H33.183z M33.183,12.589h1.152
		c0.198,0,0.414-0.045,0.549-0.161c0.1-0.091,0.199-0.253,0.199-0.469c0-0.288-0.117-0.45-0.207-0.522
		c-0.172-0.144-0.406-0.152-0.531-0.152h-1.162V12.589z"/>
	<path class="st0" d="M39.646,11.483h-1.854v1.953h-0.973V8.854h0.973v1.755h1.854V8.854h0.973v4.582h-0.973V11.483z"/>
	<path class="st0" d="M42.669,8.854v1.638h0.928c0.44,0,0.944,0,1.404,0.379c0.359,0.297,0.468,0.657,0.468,1.107
		c0,0.288-0.063,0.737-0.433,1.08c-0.378,0.342-0.863,0.378-1.125,0.378h-2.215V8.854H42.669z M42.669,12.589h1.063
		c0.197,0,0.414-0.045,0.549-0.161c0.1-0.091,0.197-0.253,0.197-0.469c0-0.288-0.116-0.45-0.207-0.522
		c-0.17-0.144-0.404-0.152-0.53-0.152h-1.071V12.589z M47.134,13.436h-0.973V8.854h0.973V13.436z"/>
	<path class="st0" d="M51.192,10.717l-2.008,2.134v0.585h-0.973V8.854h0.973v2.719l2.008-2.134V8.854h0.973v4.582h-0.973V10.717z
		 M51.534,7.296c0,0.27-0.08,0.576-0.234,0.774c-0.162,0.207-0.485,0.432-1.115,0.432c-0.631,0-0.955-0.225-1.117-0.432
		c-0.152-0.198-0.234-0.505-0.234-0.774h0.829c-0.009,0.126,0.026,0.261,0.099,0.351c0.127,0.153,0.307,0.162,0.424,0.162
		s0.297-0.009,0.423-0.162c0.071-0.09,0.108-0.225,0.099-0.351H51.534z"/>
	<path class="st0" d="M23.058,19.474c-0.063-0.171-0.18-0.387-0.314-0.522c-0.135-0.135-0.379-0.288-0.729-0.288
		c-0.306,0-0.54,0.126-0.72,0.315c-0.189,0.198-0.396,0.54-0.396,1.125c0,0.333,0.063,0.657,0.198,0.909
		c0.135,0.253,0.414,0.576,0.937,0.576c0.342,0,0.576-0.152,0.729-0.297c0.145-0.135,0.252-0.333,0.315-0.495l0.864,0.469
		c-0.162,0.359-0.424,0.72-0.747,0.945c-0.333,0.233-0.747,0.351-1.18,0.351c-0.802,0-1.269-0.387-1.468-0.585
		c-0.404-0.414-0.675-1.063-0.675-1.854c0-0.729,0.243-1.342,0.64-1.756c0.378-0.396,0.918-0.639,1.53-0.639
		c0.495,0,0.909,0.162,1.206,0.387c0.441,0.333,0.657,0.819,0.702,0.937L23.058,19.474z"/>
	<path class="st0" d="M27.45,18.727h-1.782v3.709h-0.973v-4.582h3.728v4.582H27.45V18.727z"/>
	<path class="st0" d="M29.231,20.14c0-1.432,0.873-2.412,2.151-2.412c1.269,0,2.151,0.963,2.151,2.412
		c0,1.368-0.819,2.422-2.151,2.422C30.113,22.562,29.231,21.599,29.231,20.14z M31.383,21.625c0.711,0,1.134-0.63,1.134-1.485
		c0-1.017-0.558-1.485-1.134-1.485s-1.134,0.478-1.134,1.485C30.249,20.995,30.671,21.625,31.383,21.625z"/>
	<path class="st0" d="M37.17,20.483h-1.854v1.953h-0.973v-4.582h0.973v1.755h1.854v-1.755h0.972v4.582H37.17V20.483z"/>
	<path class="st0" d="M42.138,19.474c-0.063-0.171-0.18-0.387-0.314-0.522c-0.136-0.135-0.379-0.288-0.73-0.288
		c-0.306,0-0.539,0.126-0.72,0.315c-0.188,0.198-0.396,0.54-0.396,1.125c0,0.333,0.063,0.657,0.197,0.909
		c0.135,0.253,0.414,0.576,0.937,0.576c0.343,0,0.576-0.152,0.729-0.297c0.145-0.135,0.252-0.333,0.314-0.495l0.865,0.469
		c-0.162,0.359-0.424,0.72-0.748,0.945c-0.333,0.233-0.747,0.351-1.18,0.351c-0.801,0-1.269-0.387-1.467-0.585
		c-0.405-0.414-0.676-1.063-0.676-1.854c0-0.729,0.244-1.342,0.64-1.756c0.378-0.396,0.919-0.639,1.53-0.639
		c0.496,0,0.91,0.162,1.207,0.387c0.441,0.333,0.656,0.819,0.701,0.937L42.138,19.474z"/>
	<path class="st0" d="M43.388,20.14c0-1.432,0.874-2.412,2.152-2.412c1.27,0,2.151,0.963,2.151,2.412
		c0,1.368-0.819,2.422-2.151,2.422C44.271,22.562,43.388,21.599,43.388,20.14z M45.54,21.625c0.711,0,1.135-0.63,1.135-1.485
		c0-1.017-0.559-1.485-1.135-1.485s-1.135,0.478-1.135,1.485C44.405,20.995,44.829,21.625,45.54,21.625z"/>
	<path class="st0" d="M48.5,17.854h0.973v0.432c0.144-0.171,0.485-0.504,1.188-0.504c0.441,0,0.999,0.126,1.432,0.675
		c0.242,0.307,0.521,0.838,0.521,1.711c0,1.387-0.738,2.395-1.953,2.395c-0.307,0-0.793-0.063-1.188-0.513v1.62H48.5V17.854z
		 M49.733,21.292c0.217,0.288,0.531,0.333,0.756,0.333c0.352,0,0.621-0.126,0.82-0.396c0.144-0.198,0.278-0.531,0.278-1.063
		c0-0.585-0.153-0.945-0.351-1.152c-0.145-0.153-0.388-0.307-0.774-0.307c-0.261,0-0.441,0.081-0.576,0.181
		c-0.405,0.314-0.414,0.954-0.414,1.278S49.499,20.978,49.733,21.292z"/>
</g>
<g>
	<g>
		<path class="st0" d="M115.094,18.668c0.662,0.728,1.456,1.258,2.449,1.655c0.993,0.397,2.118,0.596,3.508,0.596
			c0.662,0,1.324-0.066,1.854-0.132c0.596-0.066,1.059-0.199,1.523-0.397c0.463-0.132,0.861-0.331,1.258-0.463
			c0.331-0.199,0.662-0.331,0.927-0.463l-0.463-0.993c-0.265,0.132-0.53,0.265-0.794,0.397c-0.265,0.132-0.53,0.199-0.861,0.331
			c-0.331,0.066-0.662,0.199-1.059,0.199c-0.397,0.066-0.861,0.066-1.39,0.066c-0.993,0-1.854-0.199-2.449-0.596
			c-0.662-0.397-1.125-0.927-1.523-1.523c-0.331-0.662-0.596-1.456-0.728-2.317c-0.132-0.927-0.199-1.854-0.199-2.913
			c0-0.794,0.066-1.655,0.132-2.516c0.066-0.861,0.265-1.589,0.596-2.251c0.331-0.662,0.728-1.192,1.324-1.655
			c0.596-0.397,1.39-0.662,2.383-0.662c0.927,0,1.721,0.265,2.383,0.728c0.662,0.463,1.059,1.258,1.258,2.251h1.059V4.766
			c-0.331-0.132-0.662-0.265-1.059-0.397c-0.397-0.132-0.794-0.199-1.258-0.265c-0.463-0.066-0.861-0.066-1.324-0.132
			c-0.397,0-0.794-0.066-1.125-0.066c-1.456,0-2.648,0.199-3.707,0.596c-0.993,0.397-1.854,0.993-2.516,1.721
			s-1.125,1.655-1.456,2.714c-0.331,1.059-0.463,2.317-0.463,3.641c0,1.258,0.132,2.449,0.463,3.442
			C114.035,17.145,114.498,18.006,115.094,18.668z"/>
	</g>
	<g>
		<path class="st0" d="M179.836,20.389c0.794-0.066,1.589-0.331,2.185-0.662c0.662-0.397,1.192-0.927,1.523-1.655
			c0.397-0.728,0.596-1.721,0.596-2.979c0-0.927-0.132-1.655-0.397-2.317c-0.265-0.662-0.662-1.125-1.258-1.589
			c-0.596-0.397-1.324-0.662-2.251-0.861c-0.927-0.199-2.052-0.265-3.376-0.265h-1.39V6.156c0-0.397,0.066-0.662,0.265-0.794
			c0.199-0.132,0.53-0.132,1.059-0.132h1.986c0.596,0,1.125,0,1.523,0.066c0.397,0.066,0.728,0.132,0.927,0.331
			c0.265,0.199,0.463,0.463,0.596,0.794c0.132,0.331,0.331,0.794,0.463,1.39h0.861V4.17h-11.254h-0.927V4.7
			c0.066,0,0.132,0.066,0.331,0.066c0.199,0.066,0.331,0.132,0.397,0.199c0.066,0.066,0.132,0.199,0.199,0.397
			c0,0.199,0.066,0.397,0.066,0.662v3.31v6.024v3.31c0,0.265,0,0.53-0.066,0.662c0,0.199-0.066,0.331-0.199,0.397
			c-0.066,0.066-0.199,0.199-0.397,0.199c-0.199,0.066-0.265,0.066-0.331,0.066v0.53h6.156
			C178.115,20.521,178.975,20.521,179.836,20.389z M175.798,19.197c-0.132-0.132-0.199-0.265-0.199-0.463s-0.066-0.463-0.066-0.794
			v-6.885h1.39c1.258,0,2.185,0.331,2.714,0.993c0.53,0.662,0.794,1.721,0.794,3.177c0,0.993-0.066,1.721-0.265,2.317
			s-0.397,0.993-0.728,1.324c-0.331,0.265-0.662,0.463-0.993,0.596c-0.397,0.066-0.794,0.132-1.192,0.132
			c-0.397-0.066-0.728-0.066-0.927-0.132C176.129,19.396,175.93,19.33,175.798,19.197z"/>
	</g>
	<g>
		<path class="st0" d="M162.426,19.992c-0.066,0-0.132-0.066-0.331-0.066c-0.199-0.066-0.331-0.132-0.397-0.199
			c-0.066-0.066-0.132-0.199-0.199-0.397c0-0.199-0.066-0.397-0.066-0.662V14.1h1.655c0.861,0,1.655-0.066,2.449-0.199
			c0.794-0.132,1.456-0.397,2.052-0.728c0.596-0.397,1.059-0.861,1.39-1.589c0.331-0.662,0.53-1.589,0.53-2.714
			c0-1.059-0.199-1.92-0.463-2.516c-0.331-0.596-0.794-1.125-1.324-1.456c-0.53-0.331-1.192-0.53-1.92-0.596
			c-0.728-0.066-1.456-0.132-2.251-0.132h-5.561h-0.927V4.7c0.066,0,0.132,0.066,0.331,0.066c0.199,0.066,0.331,0.132,0.397,0.199
			s0.132,0.199,0.199,0.397c0,0.199,0.066,0.397,0.066,0.662v12.578c0,0.265,0,0.53-0.066,0.662c0,0.199-0.066,0.331-0.199,0.397
			c-0.066,0.066-0.199,0.199-0.397,0.199c-0.199,0.066-0.265,0.066-0.331,0.066v0.53h5.362V19.992L162.426,19.992z M161.499,6.024
			c0-0.132,0-0.265,0.066-0.397c0-0.132,0.066-0.199,0.132-0.265c0.066-0.066,0.199-0.132,0.397-0.132s0.397-0.066,0.728-0.066
			c0.397,0,0.794,0.066,1.192,0.132c0.397,0.132,0.662,0.331,0.993,0.596c0.265,0.265,0.463,0.662,0.662,1.125
			c0.132,0.463,0.199,1.059,0.199,1.721c0,1.39-0.199,2.449-0.596,3.177c-0.397,0.728-1.125,1.125-2.118,1.125h-1.655L161.499,6.024
			L161.499,6.024z"/>
	</g>
	<g>
		<path class="st0" d="M154.879,16.748h-1.059c-0.132,0.662-0.265,1.125-0.397,1.523c-0.132,0.397-0.265,0.662-0.53,0.861
			c-0.199,0.199-0.53,0.331-0.927,0.331c-0.397,0.066-0.927,0.066-1.655,0.066c-0.662,0-1.192,0-1.523-0.066
			c-0.397-0.066-0.662-0.132-0.861-0.265c-0.199-0.132-0.331-0.331-0.331-0.53c-0.066-0.265-0.066-0.53-0.066-0.927v-5.163h2.185
			c0.199,0,0.397,0,0.662,0c0.265,0,0.53,0.066,0.794,0.066c0.265,0,0.53,0.066,0.794,0.132c0.265,0.066,0.463,0.132,0.662,0.265
			v-2.118c-0.199,0.132-0.397,0.199-0.662,0.265c-0.265,0.066-0.53,0.132-0.794,0.132c-0.265,0.066-0.53,0.066-0.794,0.066
			s-0.463,0-0.662,0h-2.185V5.958c0-0.331,0.066-0.596,0.132-0.728c0.132-0.132,0.331-0.132,0.662-0.132h1.787
			c0.596,0,1.125,0,1.523,0.066c0.397,0.066,0.728,0.132,0.927,0.331c0.265,0.199,0.463,0.463,0.596,0.794s0.331,0.794,0.463,1.39
			h0.861V4.17h-10.459h-0.927V4.7c0.066,0,0.132,0.066,0.331,0.066c0.199,0.066,0.331,0.132,0.397,0.199s0.132,0.199,0.199,0.397
			c0,0.199,0.066,0.397,0.066,0.662v12.578c0,0.265,0,0.53-0.066,0.662c0,0.199-0.066,0.331-0.199,0.397
			c-0.066,0.066-0.199,0.199-0.397,0.199c-0.199,0.066-0.265,0.066-0.331,0.066v0.53h11.783
			C154.879,20.455,154.879,16.748,154.879,16.748z"/>
	</g>
	<g>
		<path class="st0" d="M136.873,20.389c0.794-0.066,1.589-0.331,2.185-0.662c0.662-0.397,1.192-0.927,1.589-1.655
			c0.397-0.728,0.596-1.721,0.596-2.979c0-0.927-0.132-1.655-0.397-2.317c-0.265-0.662-0.662-1.125-1.258-1.589
			c-0.596-0.397-1.324-0.662-2.251-0.861c-0.927-0.199-2.052-0.265-3.376-0.265h-1.39V6.156c0-0.397,0.066-0.662,0.265-0.794
			c0.199-0.132,0.53-0.132,1.059-0.132h1.986c0.596,0,1.125,0,1.523,0.066c0.397,0.066,0.728,0.132,0.927,0.331
			c0.265,0.199,0.463,0.463,0.596,0.794c0.132,0.331,0.331,0.794,0.463,1.39h0.861V4.17h-11.254h-0.927V4.7
			c0.066,0,0.132,0.066,0.331,0.066c0.199,0.066,0.331,0.132,0.397,0.199c0.066,0.066,0.132,0.199,0.199,0.397
			c0,0.199,0.066,0.397,0.066,0.662v0.331v2.913v5.958v2.449c0,0,0,0,0,0.066v0.861c0,0.265,0,0.463-0.066,0.662
			c0,0.199-0.066,0.331-0.199,0.397c-0.066,0.066-0.199,0.199-0.397,0.199c-0.199,0.066-0.265,0.066-0.331,0.066v0.596h6.156
			C135.218,20.521,136.013,20.521,136.873,20.389z M132.835,19.197c-0.132-0.132-0.199-0.265-0.199-0.463s-0.066-0.463-0.066-0.794
			v-6.885h1.39c1.258,0,2.185,0.331,2.714,0.993c0.53,0.662,0.794,1.721,0.794,3.177c0,0.993-0.066,1.721-0.265,2.317
			s-0.397,0.993-0.728,1.324c-0.331,0.265-0.662,0.463-0.993,0.596c-0.397,0.066-0.794,0.132-1.192,0.132
			c-0.397-0.066-0.662-0.066-0.927-0.132C133.166,19.396,132.968,19.33,132.835,19.197z"/>
	</g>
	<g>
		<rect x="113.241" y="25.155" class="st0" width="120.017" height="1.589"/>
	</g>
	<g>
		<path class="st0" d="M223.659,14.365c0.331,0.463,0.596,0.861,0.927,1.258c0.265,0.397,0.596,0.794,0.861,1.192
			c0.265,0.397,0.53,0.794,0.861,1.192c0.331,0.463,0.596,0.861,0.861,1.324c0.265,0.397,0.463,0.861,0.662,1.258l5.561,0.066
			c-0.596-0.596-1.125-1.192-1.721-1.787c-0.53-0.596-0.993-1.125-1.324-1.456c-0.53-0.596-0.993-1.125-1.39-1.589
			c-0.463-0.53-0.861-0.993-1.258-1.456s-0.794-0.993-1.125-1.456c-0.331-0.463-0.728-1.059-1.059-1.589l0.265-0.331
			c0.397-0.53,0.861-1.059,1.39-1.721s1.059-1.324,1.655-1.92c0.596-0.662,1.125-1.258,1.721-1.787
			c0.596-0.53,1.059-0.927,1.523-1.258h-3.839c-0.132,0.331-0.331,0.728-0.596,1.192s-0.53,0.993-0.927,1.523
			c-0.331,0.53-0.728,1.125-1.059,1.721c-0.397,0.596-0.728,1.125-1.125,1.655c-0.397,0.53-0.728,1.059-1.059,1.456
			c-0.331,0.463-0.596,0.794-0.794,1.125C222.997,13.438,223.328,13.902,223.659,14.365z"/>
	</g>
	<g>
		<path class="st0" d="M223.195,19.992c-0.066,0-0.132-0.066-0.331-0.066c-0.199-0.066-0.331-0.132-0.397-0.199
			c-0.066-0.066-0.132-0.199-0.199-0.397c0-0.199-0.066-0.397-0.066-0.662V6.09c0-0.265,0-0.53,0.066-0.662
			c0-0.199,0.066-0.331,0.199-0.397c0.066-0.066,0.199-0.132,0.397-0.199s0.265-0.066,0.331-0.066V4.17h-4.435h-0.927V4.7
			c0.066,0,0.132,0.066,0.331,0.066c0.199,0.066,0.331,0.132,0.397,0.199c0.066,0.066,0.132,0.199,0.199,0.397
			c0,0.199,0.066,0.397,0.066,0.662v12.578c0,0.265,0,0.53-0.066,0.662c0,0.199-0.066,0.331-0.199,0.397
			c-0.066,0.066-0.199,0.199-0.397,0.199c-0.199,0.066-0.265,0.066-0.331,0.066v0.53h5.362V19.992L223.195,19.992z"/>
	</g>
	<g>
		<path class="st0" d="M187.581,18.535c0.199-0.927,0.596-2.251,1.125-3.906h5.23l0.728,2.118c0.331,0.927,0.596,1.721,0.728,2.383
			c0.199,0.662,0.331,1.125,0.331,1.456h4.17c-0.199-0.331-0.397-0.794-0.662-1.324s-0.596-1.324-0.927-2.317l-3.773-10.724
			c-0.199-0.463-0.265-0.861-0.331-1.192s-0.066-0.596-0.132-0.794h-4.7v0.53c0.066,0,0.132,0.066,0.331,0.066
			c0.199,0.066,0.331,0.132,0.397,0.199c0.066,0.066,0.132,0.199,0.199,0.397c0,0.132,0,0.199,0,0.331
			c0,0.397-0.066,0.794-0.199,1.059l-2.648,6.487c-0.463,1.192-0.927,2.251-1.258,3.045c-0.331,0.794-0.662,1.523-0.861,2.052
			c-0.265,0.53-0.463,0.993-0.662,1.324c-0.199,0.331-0.331,0.596-0.463,0.861h2.979C187.25,20.124,187.382,19.462,187.581,18.535z
			 M191.354,6.885l2.185,6.62h-4.501L191.354,6.885z"/>
	</g>
	<g>
		<path class="st0" d="M206.182,19.992h-0.132c-0.066,0-0.132-0.066-0.331-0.066c-0.199-0.066-0.331-0.132-0.397-0.199
			c-0.066-0.066-0.132-0.199-0.199-0.397c0-0.199-0.066-0.397-0.066-0.662v-6.289h6.355v6.223c0,0.265,0,0.53-0.066,0.662
			c0,0.199-0.066,0.331-0.199,0.397c-0.066,0.066-0.199,0.199-0.397,0.199c-0.199,0.066-0.265,0.066-0.331,0.066v0.53h5.362v-0.53
			c-0.066,0-0.132-0.066-0.331-0.066c-0.199-0.066-0.331-0.132-0.397-0.199c-0.066-0.066-0.132-0.199-0.199-0.397
			c0-0.199-0.066-0.397-0.066-0.662v-3.244v-0.132V9.268V9.201V5.958c0-0.265,0-0.53,0.066-0.662c0-0.199,0.066-0.331,0.199-0.397
			c0.066-0.066,0.199-0.132,0.397-0.199c0.199-0.066,0.265-0.066,0.331-0.066V4.17h-4.435h-0.794V4.7
			c0.066,0,0.132,0.066,0.331,0.066c0.199,0.066,0.331,0.132,0.397,0.199c0.066,0.066,0.132,0.199,0.199,0.397
			c0,0.199,0.066,0.397,0.066,0.662v5.23h-6.355v-5.23c0-0.265,0-0.53,0.066-0.662c0-0.199,0.066-0.331,0.199-0.397
			c0.066-0.066,0.199-0.132,0.397-0.199s0.265-0.066,0.331-0.066V4.17h-4.435h-0.927V4.7c0.066,0,0.132,0.066,0.331,0.066
			c0.199,0.066,0.331,0.132,0.397,0.199c0.066,0.066,0.132,0.199,0.199,0.397c0,0.199,0.066,0.397,0.066,0.662v0.397v11.32v0.066
			v0.861c0,0.265,0,0.463-0.066,0.662c0,0.199-0.066,0.331-0.199,0.397c-0.066,0.066-0.199,0.199-0.397,0.199
			c-0.199,0.066-0.265,0.066-0.331,0.066v0.53h5.362L206.182,19.992L206.182,19.992z"/>
	</g>
	<g>
		<path class="st0" d="M102.318,5.892c-0.331-0.463-0.662-0.927-0.993-1.39L82.988,15.027L74.118,9.93
			c-0.199,0.596-0.331,1.125-0.397,1.721l9.334,5.362L102.318,5.892z"/>
	</g>
	<g>
		<path class="st0" d="M82.988,18.999l-9.532-5.494c-0.066,0.331-0.066,0.728-0.066,1.059c0,8.672,7.017,15.755,15.755,15.755
			c8.672,0,15.755-7.017,15.755-15.755c0-2.582-0.596-5.031-1.721-7.149L82.988,18.999z"/>
	</g>
	<g>
		<path class="st0" d="M100.067,3.177c-0.463-0.463-0.927-0.794-1.39-1.192l-15.689,9.069l-7.547-4.303
			c-0.265,0.463-0.53,0.993-0.794,1.523l8.275,4.766L100.067,3.177z"/>
	</g>
	<g>
		<path class="st0" d="M97.088,0.927C96.493,0.596,95.897,0.265,95.235,0L82.988,7.083l-5.494-3.111
			c-0.397,0.397-0.728,0.861-1.125,1.324l6.554,3.773L97.088,0.927z"/>
	</g>
</g>
</svg>
