<svg aria-hidden="true" style="position: absolute; width: 0; height: 0; overflow: hidden;" version="1.1" xmlns="http://www.w3.org/2000/svg" xmlns:xlink="http://www.w3.org/1999/xlink">
<defs>
<symbol id="icon-arrow-left" viewBox="0 0 33 32">
<title>arrow-left</title>
<path fill="#90a4ae" style="fill: var(--color1, #90a4ae)" d="M0 16.001l16.001-16.001 3.234 3.293-12.711 12.708 12.708 12.765-3.234 3.234-15.999-15.999z"></path>
<path fill="#90a4ae" style="fill: var(--color1, #90a4ae)" d="M14.183 16.001l16.001-16.001 3.234 3.293-12.711 12.708 12.708 12.765-3.234 3.234-15.999-15.999z"></path>
</symbol>
<symbol id="icon-arrow-right" viewBox="0 0 33 32">
<title>arrow-right</title>
<path fill="#90a4ae" style="fill: var(--color1, #90a4ae)" d="M17.417 32l-3.234-3.234 12.708-12.765-12.708-12.708 3.234-3.293 16.001 16.001-16.001 15.999z"></path>
<path fill="#90a4ae" style="fill: var(--color1, #90a4ae)" d="M3.234 32l-3.234-3.234 12.708-12.765-12.708-12.708 3.234-3.293 16.001 16.001-16.001 15.999z"></path>
</symbol>
<symbol id="icon-cards" viewBox="0 0 40 32">
<title>cards</title>
<path fill="none" stroke="#a21900" stroke-width="1.1369" stroke-miterlimit="10" stroke-linecap="butt" stroke-linejoin="miter" style="stroke: var(--color2, #a21900)" d="M0.568 9.594c0-1.251 1.023-2.274 2.274-2.274h27.601c1.251 0 2.274 1.023 2.274 2.274v19.564c0 1.251-1.023 2.274-2.274 2.274h-27.601c-1.251 0-2.274-1.023-2.274-2.274v-19.564z"></path>
<path fill="none" stroke="#a21900" stroke-width="1.1369" stroke-miterlimit="10" stroke-linecap="butt" stroke-linejoin="miter" style="stroke: var(--color2, #a21900)" d="M20.178 23.598c0-0.625 0.512-1.137 1.137-1.137h7.257c0.625 0 1.137 0.512 1.137 1.137v3.689c0 0.625-0.512 1.137-1.137 1.137h-7.257c-0.625 0-1.137-0.512-1.137-1.137v-3.689z"></path>
<path fill="none" stroke="#a21900" stroke-width="1.1369" stroke-miterlimit="10" stroke-linecap="butt" stroke-linejoin="miter" style="stroke: var(--color2, #a21900)" d="M7.32 4.91c0 0 0-0.977 0-2.17s1.023-2.17 2.274-2.17h27.601c1.251 0 2.274 1.023 2.274 2.274v19.563c0 1.251-0.977 2.274-2.17 2.274s-2.17 0-2.17 0"></path>
<path fill="none" stroke="#a21900" stroke-width="1.1369" stroke-miterlimit="10" stroke-linecap="butt" stroke-linejoin="miter" style="stroke: var(--color2, #a21900)" d="M37.198 4.271h-27.608"></path>
<path fill="none" stroke="#a21900" stroke-width="1.1369" stroke-miterlimit="10" stroke-linecap="butt" stroke-linejoin="miter" style="stroke: var(--color2, #a21900)" d="M37.198 8.569h-2.098"></path>
</symbol>
<symbol id="icon-food" viewBox="0 0 32 32">
<title>food</title>
<path fill="none" stroke="#a21900" stroke-width="0.9697" stroke-miterlimit="10" stroke-linecap="butt" stroke-linejoin="miter" style="stroke: var(--color2, #a21900)" d="M18.782 14.396l0.004 0.004c1.347-1.347 1.931-2.079 4.008-2.187 1.795 0.237 4.031-0.615 5.809-2.393 2.563-2.563 3.203-6.079 1.429-7.853s-5.289-1.134-7.852 1.429c-1.778 1.778-2.629 4.014-2.393 5.809-0.108 2.077-0.84 2.66-2.187 4.008l0.004 0.004"></path>
<path fill="none" stroke="#a21900" stroke-width="0.9697" stroke-miterlimit="10" stroke-linecap="butt" stroke-linejoin="miter" style="stroke: var(--color2, #a21900)" d="M13.6 16.753l-12.023 10.639c-0.783 0.693-0.819 1.866-0.079 2.606l0.505 0.505c0.74 0.74 1.912 0.704 2.606-0.079l10.472-11.835"></path>
<path fill="none" stroke="#a21900" stroke-width="0.9697" stroke-miterlimit="10" stroke-linecap="butt" stroke-linejoin="miter" style="stroke: var(--color2, #a21900)" d="M7.068 6.626c0.148 0.148 0.39 0.148 0.538 0l1.081-0.596c0.148-0.148 0.148-0.39 0-0.538l-4.372-4.371c-0.148-0.148-0.151-0.387-0.008-0.53s0.382-0.14 0.53 0.008l4.372 4.372c0.148 0.148 0.375 0.375 0.504 0.504s0.356 0.356 0.504 0.504l2.476 2.476c-0.129 3.131 0.605 3.658 2.187 5.24l-0.004 0.004c0.060 0.048 0.119 0.097 0.178 0.15l15.848 14.024c0.784 0.693 0.819 1.866 0.079 2.606l-0.505 0.505c-0.74 0.74-1.912 0.704-2.606-0.079l-14.024-15.848c-0.052-0.059-0.102-0.118-0.15-0.178l-0.004 0.004c-1.582-1.582-2.109-2.316-5.24-2.187l-2.476-2.476c-0.148-0.148-0.375-0.375-0.504-0.504s-0.356-0.356-0.504-0.504l-4.372-4.372c-0.148-0.148-0.152-0.386-0.008-0.53s0.383-0.14 0.53 0.008l4.372 4.372c0.148 0.148 0.39 0.148 0.538 0l0.529-1.013c0.148-0.148 0.148-0.39 0-0.538l-4.372-4.371c-0.148-0.148-0.151-0.387-0.008-0.53s0.383-0.14 0.53 0.008l4.359 4.385z"></path>
</symbol>
<symbol id="icon-heart" viewBox="0 0 35 32">
<title>heart</title>
<path stroke-width="1.0323" stroke-miterlimit="10" stroke-linecap="round" stroke-linejoin="round" d="M17.543 31.484c-1.146-1.109-2.222-2.115-3.259-3.162-3.705-3.737-7.451-7.435-11.080-11.244-4.999-5.246-2.698-13.974 4.212-16.054 3.586-1.080 6.814-0.256 9.627 2.208 0.077 0.068 0.152 0.14 0.229 0.209 0.019 0.017 0.045 0.023-0.002 0 0.798-0.566 1.523-1.182 2.337-1.641 5.97-3.369 13.491 0.226 14.611 6.993 0.561 3.384-0.43 6.313-2.833 8.75-2.097 2.127-4.221 4.227-6.333 6.339-2.432 2.432-4.865 4.864-7.294 7.299-0.099 0.099-0.165 0.231-0.215 0.303z"></path>
</symbol>
<symbol id="icon-house" viewBox="0 0 32 32">
<title>house</title>
<path d="M28.082 12.894v19.103h-23.448v-19.103h-4.634l16.239-12.894 16.239 12.894h-4.395zM16.191 2.435l-11.271 8.74h22.448l-11.178-8.74zM26.22 12.894h-19.724v17.241h11.032v-12.082h5.541v12.082h3.151v-17.241zM8.931 23.594v-5.541h5.541v5.541h-5.541z"></path>
</symbol>
<symbol id="icon-map" viewBox="0 0 43 32">
<title>map</title>
<path fill="none" stroke="#a21900" stroke-width="1.1259" stroke-miterlimit="10" stroke-linecap="butt" stroke-linejoin="miter" style="stroke: var(--color2, #a21900)" d="M8.914 4.74c0-2.307-1.868-4.177-4.175-4.177-2.306 0-4.176 1.869-4.176 4.177 0 1.804 1.142 3.34 2.744 3.923l1.512 3.806 1.544-3.884c1.498-0.635 2.551-2.115 2.553-3.845h-0.002z"></path>
<path fill="none" stroke="#a21900" stroke-width="1.1259" stroke-miterlimit="10" stroke-linecap="butt" stroke-linejoin="miter" style="stroke: var(--color2, #a21900)" d="M7.14 11.425c0.294 0.22 0.503 0.489 0.603 0.788l33.326 3.409c0.529 0.052 0.914 0.311 1 0.656 0.089 0.343-0.151 0.709-0.598 0.943l-10.728 5.393c-0.27 0.124-0.575 0.202-0.895 0.202l-14.902 0.117 4.36 4.533c1.54 0.14 2.548 1.067 2.247 2.135-0.31 1.1-1.899 1.917-3.54 1.833-1.642-0.086-2.728-1.044-2.419-2.145 0.127-0.447 0.472-0.843 0.932-1.158l-5.334-5.544c-0.254-0.276-0.251-0.641 0.033-0.947 0.27-0.302 0.77-0.499 1.291-0.504l17.112-0.135 7.762-3.894-30.364-3.103c-0.687 0.552-1.734 0.893-2.815 0.837-1.642-0.084-2.714-1.051-2.404-2.15 0.105-0.372 0.355-0.713 0.703-0.998"></path>
</symbol>
<symbol id="icon-school" viewBox="0 0 35 32">
<title>school</title>
<path fill="none" stroke="#a21900" stroke-width="0.969" stroke-miterlimit="10" stroke-linecap="butt" stroke-linejoin="miter" style="stroke: var(--color2, #a21900)" d="M27.358 26.825c0 0.756-0.613 1.369-1.369 1.369s-1.369-0.613-1.369-1.369c0-0.756 0.613-1.369 1.369-1.369s1.369 0.613 1.369 1.369z"></path>
<path fill="none" stroke="#a21900" stroke-width="0.969" stroke-miterlimit="10" stroke-linecap="butt" stroke-linejoin="miter" style="stroke: var(--color2, #a21900)" d="M19.756 7.373c0 0.652-0.983 1.18-2.195 1.18s-2.195-0.528-2.195-1.18c0-0.652 0.983-1.18 2.195-1.18s2.195 0.528 2.195 1.18z"></path>
<path fill="none" stroke="#a21900" stroke-width="0.969" stroke-miterlimit="10" stroke-linecap="butt" stroke-linejoin="miter" style="stroke: var(--color2, #a21900)" d="M6.3 14.503v3.953c0 3.344 5.041 6.054 11.261 6.054s11.261-2.71 11.261-6.054v-3.953"></path>
<path fill="none" stroke="#a21900" stroke-width="0.969" stroke-miterlimit="10" stroke-linecap="butt" stroke-linejoin="miter" style="stroke: var(--color2, #a21900)" d="M17.561 18.515v5.994"></path>
<path fill="none" stroke="#a21900" stroke-width="0.969" stroke-miterlimit="10" stroke-linecap="butt" stroke-linejoin="miter" style="stroke: var(--color2, #a21900)" d="M17.561 7.373l8.428 3.494v14.589"></path>
<path fill="none" stroke="#a21900" stroke-width="0.969" stroke-miterlimit="10" stroke-linecap="butt" stroke-linejoin="miter" style="stroke: var(--color2, #a21900)" d="M17.561 0.527l15.841 6.846-15.841 6.893-16.312-6.87z"></path>
<path fill="none" stroke="#a21900" stroke-width="0.969" stroke-miterlimit="10" stroke-linecap="butt" stroke-linejoin="miter" style="stroke: var(--color2, #a21900)" d="M33.402 9.521l-15.841 6.893-16.312-6.87"></path>
<path fill="none" stroke="#a21900" stroke-width="0.969" stroke-miterlimit="10" stroke-linecap="butt" stroke-linejoin="miter" style="stroke: var(--color2, #a21900)" d="M25.989 29.469v2.219"></path>
<path fill="none" stroke="#a21900" stroke-width="0.969" stroke-miterlimit="10" stroke-linecap="butt" stroke-linejoin="miter" style="stroke: var(--color2, #a21900)" d="M24.242 28.808l-0.802 3.069"></path>
<path fill="none" stroke="#a21900" stroke-width="0.969" stroke-miterlimit="10" stroke-linecap="butt" stroke-linejoin="miter" style="stroke: var(--color2, #a21900)" d="M27.627 28.808l0.803 3.069"></path>
</symbol>
<symbol id="icon-sleep" viewBox="0 0 56 32">
<title>sleep</title>
<path fill="none" stroke="#a21900" stroke-width="1.487" stroke-miterlimit="10" stroke-linecap="butt" stroke-linejoin="miter" style="stroke: var(--color2, #a21900)" d="M40.747 16.625h-25.621"></path>
<path fill="none" stroke="#a21900" stroke-width="1.487" stroke-miterlimit="10" stroke-linecap="butt" stroke-linejoin="miter" style="stroke: var(--color2, #a21900)" d="M40.747 13.405h-25.621"></path>
<path fill="none" stroke="#a21900" stroke-width="1.487" stroke-miterlimit="10" stroke-linecap="butt" stroke-linejoin="miter" style="stroke: var(--color2, #a21900)" d="M40.747 26.426h-21.14"></path>
<path fill="none" stroke="#a21900" stroke-width="1.487" stroke-miterlimit="10" stroke-linecap="butt" stroke-linejoin="miter" style="stroke: var(--color2, #a21900)" d="M15.126 31.257v-4.83h-3.36v-4.34h32.341v4.34h-3.361v4.83"></path>
<path fill="none" stroke="#a21900" stroke-width="1.487" stroke-miterlimit="10" stroke-linecap="butt" stroke-linejoin="miter" style="stroke: var(--color2, #a21900)" d="M15.126 10.745v10.641"></path>
<path fill="none" stroke="#a21900" stroke-width="1.487" stroke-miterlimit="10" stroke-linecap="butt" stroke-linejoin="miter" style="stroke: var(--color2, #a21900)" d="M40.747 10.745v10.641"></path>
<path fill="none" stroke="#a21900" stroke-width="1.487" stroke-miterlimit="10" stroke-linecap="butt" stroke-linejoin="miter" style="stroke: var(--color2, #a21900)" d="M2.589 31.257h50.695"></path>
<path fill="none" stroke="#a21900" stroke-width="1.487" stroke-miterlimit="10" stroke-linecap="butt" stroke-linejoin="miter" style="stroke: var(--color2, #a21900)" d="M17.843 19.459h8.049v2.627h-8.049v-2.627z"></path>
<path fill="none" stroke="#a21900" stroke-width="1.487" stroke-miterlimit="10" stroke-linecap="butt" stroke-linejoin="miter" style="stroke: var(--color2, #a21900)" d="M29.981 19.459h8.049v2.627h-8.049v-2.627z"></path>
<path fill="none" stroke="#a21900" stroke-width="1.487" stroke-miterlimit="10" stroke-linecap="butt" stroke-linejoin="miter" style="stroke: var(--color2, #a21900)" d="M47.081 19.459h8.049v2.627h-8.049v-2.627z"></path>
<path fill="none" stroke="#a21900" stroke-width="1.487" stroke-miterlimit="10" stroke-linecap="butt" stroke-linejoin="miter" style="stroke: var(--color2, #a21900)" d="M47.081 22.086h8.049v2.627h-8.049v-2.627z"></path>
<path fill="none" stroke="#a21900" stroke-width="1.487" stroke-miterlimit="10" stroke-linecap="butt" stroke-linejoin="miter" style="stroke: var(--color2, #a21900)" d="M0.743 19.459h8.049v2.627h-8.049v-2.627z"></path>
<path fill="none" stroke="#a21900" stroke-width="1.487" stroke-miterlimit="10" stroke-linecap="butt" stroke-linejoin="miter" style="stroke: var(--color2, #a21900)" d="M0.743 22.086h8.049v2.627h-8.049v-2.627z"></path>
<path fill="none" stroke="#a21900" stroke-width="1.487" stroke-miterlimit="10" stroke-linecap="butt" stroke-linejoin="miter" style="stroke: var(--color2, #a21900)" d="M38.71 0.929l6.597 1.421-7.806 4.194 6.597 1.42"></path>
<path fill="none" stroke="#a21900" stroke-width="1.487" stroke-miterlimit="10" stroke-linecap="butt" stroke-linejoin="miter" style="stroke: var(--color2, #a21900)" d="M48.367 1.199l2.883-0.271-2.653 2.724 2.883-0.27"></path>
<path fill="none" stroke="#a21900" stroke-width="1.487" stroke-miterlimit="10" stroke-linecap="butt" stroke-linejoin="miter" style="stroke: var(--color2, #a21900)" d="M30.663 7.75l3.946-0.797-3.268 4.156 3.947-0.797"></path>
</symbol>
<symbol id="icon-stars" viewBox="0 0 26 32">
<title>stars</title>
<path fill="none" stroke="#a21900" stroke-width="0.9223" stroke-miterlimit="10" stroke-linecap="butt" stroke-linejoin="miter" style="stroke: var(--color2, #a21900)" d="M12.38 16.394l-3.040-1.208c-0.402-0.16-0.458-0.516-0.125-0.793l1.913-1.586c0.333-0.276 0.628-0.855 0.656-1.287l0.159-2.48c0.028-0.432 0.35-0.596 0.715-0.364l2.1 1.329c0.366 0.232 1.008 0.333 1.427 0.226l2.408-0.615c0.419-0.107 0.675 0.149 0.568 0.568l-0.615 2.408c-0.107 0.419-0.006 1.061 0.226 1.427l1.329 2.1c0.232 0.366 0.067 0.687-0.364 0.715l-2.48 0.159c-0.432 0.028-1.011 0.323-1.287 0.656l-1.587 1.913c-0.276 0.333-0.633 0.277-0.793-0.125l-0.832-2.095"></path>
<path fill="none" stroke="#a21900" stroke-width="0.9223" stroke-miterlimit="10" stroke-linecap="butt" stroke-linejoin="miter" style="stroke: var(--color2, #a21900)" d="M7.097 6.622l0.36-1.853"></path>
<path fill="none" stroke="#a21900" stroke-width="0.9223" stroke-miterlimit="10" stroke-linecap="butt" stroke-linejoin="miter" style="stroke: var(--color2, #a21900)" d="M20.519 1.938l0.583-1.796"></path>
<path fill="none" stroke="#a21900" stroke-width="0.9223" stroke-miterlimit="10" stroke-linecap="butt" stroke-linejoin="miter" style="stroke: var(--color2, #a21900)" d="M3.371 7.932l-3.101-2.236"></path>
<path fill="none" stroke="#a21900" stroke-width="0.9223" stroke-miterlimit="10" stroke-linecap="butt" stroke-linejoin="miter" style="stroke: var(--color2, #a21900)" d="M23.065 4.537l2.977-0.472"></path>
<path fill="none" stroke="#a21900" stroke-width="0.9223" stroke-miterlimit="10" stroke-linecap="butt" stroke-linejoin="miter" style="stroke: var(--color2, #a21900)" d="M15.88 1.604l0.95 1.056"></path>
<path fill="none" stroke="#a21900" stroke-width="0.9223" stroke-miterlimit="10" stroke-linecap="butt" stroke-linejoin="miter" style="stroke: var(--color2, #a21900)" d="M6.191 7.654c0.3 0.312 0.862 0.411 1.25 0.22l1.139-0.562c0.388-0.191 0.607-0.008 0.486 0.408l-0.353 1.22c-0.12 0.415 0.076 0.952 0.435 1.193l1.056 0.706c0.36 0.24 0.31 0.522-0.11 0.625l-1.233 0.304c-0.42 0.103-0.787 0.541-0.815 0.973l-0.083 1.267c-0.028 0.432-0.296 0.529-0.596 0.218l-0.88-0.916c-0.3-0.312-0.862-0.411-1.25-0.22l-1.139 0.562c-0.388 0.191-0.607 0.008-0.486-0.408l0.353-1.22c0.12-0.415-0.076-0.952-0.435-1.193l-1.056-0.706c-0.36-0.24-0.31-0.522 0.11-0.625l1.233-0.304c0.42-0.103 0.787-0.541 0.815-0.973l0.083-1.267c0.028-0.432 0.296-0.529 0.596-0.218l0.88 0.916z"></path>
<path fill="none" stroke="#a21900" stroke-width="0.9223" stroke-miterlimit="10" stroke-linecap="butt" stroke-linejoin="miter" style="stroke: var(--color2, #a21900)" d="M19.524 2.865c0.281 0.329 0.837 0.46 1.235 0.291l1.169-0.495c0.398-0.169 0.606 0.027 0.462 0.435l-0.422 1.198c-0.144 0.408 0.021 0.955 0.366 1.216l1.014 0.765c0.345 0.261 0.28 0.539-0.145 0.618l-1.249 0.232c-0.425 0.079-0.817 0.495-0.87 0.925l-0.156 1.26c-0.053 0.429-0.326 0.512-0.608 0.183l-0.825-0.965c-0.281-0.329-0.837-0.46-1.235-0.291l-1.169 0.495c-0.398 0.169-0.606-0.027-0.462-0.435l0.423-1.198c0.144-0.408-0.021-0.955-0.366-1.216l-1.014-0.765c-0.345-0.261-0.28-0.539 0.145-0.618l1.249-0.232c0.425-0.079 0.817-0.495 0.87-0.925l0.156-1.26c0.053-0.429 0.326-0.512 0.608-0.183l0.825 0.965z"></path>
<path fill="none" stroke="#a21900" stroke-width="0.9223" stroke-miterlimit="10" stroke-linecap="butt" stroke-linejoin="miter" style="stroke: var(--color2, #a21900)" d="M6.339 15.388l3.58 12.769-1.311 3.343 5.955-0.328-1.236-3.146 4.719-10.182"></path>
<path fill="none" stroke="#a21900" stroke-width="0.9223" stroke-miterlimit="10" stroke-linecap="butt" stroke-linejoin="miter" style="stroke: var(--color2, #a21900)" d="M9.684 27.316l4.027-0.116"></path>
<path fill="none" stroke="#a21900" stroke-width="0.9223" stroke-miterlimit="10" stroke-linecap="butt" stroke-linejoin="miter" style="stroke: var(--color2, #a21900)" d="M9.586 29.007l3.742-0.981"></path>
<path fill="none" stroke="#a21900" stroke-width="0.9223" stroke-miterlimit="10" stroke-linecap="butt" stroke-linejoin="miter" style="stroke: var(--color2, #a21900)" d="M7.458 19.376l8.423 3.143"></path>
<path fill="none" stroke="#a21900" stroke-width="0.9223" stroke-miterlimit="10" stroke-linecap="butt" stroke-linejoin="miter" style="stroke: var(--color2, #a21900)" d="M9.151 25.418l6.301-1.974"></path>
</symbol>
</defs>
</svg>
